<?xml version="1.0" encoding="iso-8859-1"?>
<!-- Uploaded to: SVG Repo, www.svgrepo.com, Generator: SVG Repo Mixer Tools -->
<!DOCTYPE svg PUBLIC "-//W3C//DTD SVG 1.1//EN" "http://www.w3.org/Graphics/SVG/1.1/DTD/svg11.dtd">
<svg fill="#000000" height="800px" width="800px" version="1.1" id="Capa_1" xmlns="http://www.w3.org/2000/svg"
	 viewBox="0 0 461.042 461.042" xml:space="preserve">
<g>
	<path d="M454.246,291.377c-5.233-1.773-10.908,1.033-12.679,6.265c-4.24,12.524-12.096,18.613-24.015,18.613
		c-11.583,0-22.237-8.484-26.513-21.112c-1.41-4.165-5.296-6.783-9.461-6.787c-0.057-0.002-0.114-0.003-0.17-0.004
		c-0.057,0.001-0.113,0.002-0.17,0.004c-4.165,0.004-8.051,2.622-9.461,6.787c-4.275,12.628-14.931,21.112-26.514,21.112
		c-11.376,0-21.843-8.196-26.265-20.453V217.94c13.293,2.05,25.853,7.779,36.111,16.608c2.295,1.981,5.229,3.072,8.263,3.072
		c3.376,0,6.669-1.381,9.05-3.805c7.943-8.12,18.586-12.596,29.959-12.602c11.416,0,22.095,4.523,30.04,12.708
		c2.524,2.62,6.22,4.056,9.883,3.848c6.714-0.363,11.973-5.914,11.973-12.646C454.227,162.66,394.376,111.382,319,107.345V77.521
		c0-5.522-4.478-10-10-10s-10,4.478-10,10v29.848c-75.159,4.223-134.765,55.42-134.813,117.762c0,6.725,5.26,12.275,11.923,12.636
		c0.249,0.015,0.499,0.022,0.75,0.022c3.469,0,6.815-1.407,9.161-3.839c7.97-8.213,18.647-12.736,30.062-12.736
		c11.373,0.006,22.016,4.482,29.965,12.603c2.365,2.417,5.662,3.804,9.044,3.804c3.025,0,5.955-1.087,8.251-3.062
		c10.15-8.734,22.54-14.427,35.658-16.539v78.421c-4.551,11.901-14.847,19.814-26.023,19.814c-11.582,0-22.237-8.484-26.514-21.112
		c-1.409-4.163-5.296-6.781-9.458-6.787c-0.058-0.002-0.115-0.003-0.173-0.004c-0.057,0.001-0.115,0.002-0.172,0.004
		c-4.164,0.006-8.047,2.623-9.457,6.787c-4.276,12.628-14.932,21.112-26.514,21.112s-22.237-8.484-26.514-21.112
		c-1.409-4.163-5.296-6.781-9.458-6.787c-0.058-0.002-0.115-0.003-0.173-0.004c-0.057,0.001-0.115,0.002-0.172,0.004
		c-4.164,0.006-8.047,2.623-9.457,6.787c-4.276,12.628-14.932,21.112-26.514,21.112c-11.918,0-19.773-6.089-24.015-18.613
		c-1.771-5.231-7.451-8.038-12.679-6.265c-5.231,1.771-8.036,7.448-6.265,12.679c6.929,20.463,22.587,32.199,42.958,32.199
		c14.009,0,27.099-6.737,36.144-17.808c9.045,11.071,22.135,17.808,36.144,17.808s27.099-6.737,36.144-17.808
		c9.045,11.071,22.135,17.808,36.144,17.808c9.403,0,18.392-3.035,26.023-8.377v33.761c-4.88,10.84-14.665,17.925-25.239,17.925
		c-11.582,0-22.237-8.484-26.514-21.112c-1.41-4.164-5.297-6.782-9.459-6.787c-0.057-0.002-0.115-0.003-0.172-0.004
		c-0.057,0.001-0.115,0.002-0.172,0.004c-4.164,0.005-8.048,2.624-9.457,6.787c-4.276,12.628-14.932,21.112-26.514,21.112
		s-22.237-8.484-26.514-21.112c-1.41-4.164-5.297-6.782-9.459-6.787c-0.057-0.002-0.115-0.003-0.172-0.004
		c-0.057,0.001-0.115,0.002-0.172,0.004c-4.164,0.005-8.048,2.624-9.457,6.787c-4.276,12.628-14.932,21.112-26.514,21.112
		s-22.237-8.484-26.514-21.112c-1.41-4.164-5.297-6.782-9.459-6.787c-0.057-0.002-0.115-0.003-0.172-0.004
		c-0.057,0.001-0.115,0.002-0.172,0.004c-4.164,0.005-8.048,2.624-9.457,6.787c-4.276,12.628-14.932,21.112-26.514,21.112
		c-11.919,0-19.774-6.089-24.015-18.613c-1.771-5.231-7.445-8.038-12.679-6.265c-5.23,1.771-8.036,7.447-6.265,12.679
		c6.928,20.463,22.586,32.199,42.958,32.199c14.009,0,27.099-6.737,36.144-17.808c9.045,11.071,22.135,17.808,36.144,17.808
		s27.099-6.737,36.144-17.808c9.045,11.071,22.135,17.808,36.144,17.808s27.099-6.737,36.144-17.808
		c9.045,11.071,22.135,17.808,36.144,17.808c9.084,0,17.779-2.838,25.239-7.847v31.804c0,5.522,4.478,10,10,10s10-4.478,10-10
		v-33.08c7.846,5.801,17.22,9.123,27.049,9.123c20.372,0,36.03-11.736,42.958-32.199c1.771-5.231-1.034-10.908-6.265-12.679
		c-5.231-1.773-10.907,1.033-12.679,6.265c-4.24,12.524-12.096,18.613-24.015,18.613c-11.583,0-22.237-8.484-26.513-21.112
		c-0.149-0.44-0.335-0.856-0.536-1.26v-29.484c7.683,5.448,16.763,8.548,26.265,8.548c14.01,0,27.1-6.737,36.145-17.807
		c9.044,11.071,22.135,17.807,36.144,17.807c20.372,0,36.03-11.736,42.958-32.199C462.282,298.825,459.477,293.148,454.246,291.377z
		 M255.417,215.302c-11.046-9.121-24.78-14.08-39.329-14.088c-10.769,0-21.089,2.72-30.212,7.845
		c9.822-46.419,61.271-81.937,123.061-81.979l0.297,0.004c0.103,0,0.2-0.001,0.299-0.004
		c61.788,0.044,113.233,35.563,123.057,81.976c-9.12-5.12-19.441-7.841-30.212-7.841c-14.554,0.008-28.295,4.972-39.328,14.088
		c-15.471-11.496-34.289-17.916-53.668-18.201l-0.147-0.002l-0.147,0.002C289.71,197.386,270.891,203.806,255.417,215.302z"/>
	<path d="M46.457,132.382c1.452,6.853,4.326,13.183,8.291,18.678c-0.08,0.074-0.164,0.141-0.242,0.219l-21.653,21.654
		c-3.124,3.124-3.124,8.189,0.001,11.313c1.562,1.562,3.608,2.343,5.656,2.343s4.095-0.781,5.657-2.344l21.653-21.654
		c0.077-0.077,0.144-0.161,0.218-0.241c5.572,4.021,11.999,6.925,18.962,8.356v37.814c0,4.418,3.582,8,8,8s8-3.582,8-8v-37.173
		c8.502-1.028,16.345-4.209,22.971-8.987l21.886,21.886c1.563,1.562,3.609,2.343,5.657,2.343s4.095-0.781,5.657-2.343
		c3.124-3.125,3.124-8.189,0-11.314l-21.886-21.886c3.933-5.455,6.789-11.732,8.249-18.525H182c4.418,0,8-3.582,8-8s-3.582-8-8-8
		h-37.674c-0.972-8.665-4.184-16.657-9.041-23.393l21.886-21.886c3.124-3.125,3.124-8.189,0-11.314
		c-3.125-3.123-8.189-3.123-11.314,0l-21.886,21.886c-6.626-4.778-14.469-7.96-22.971-8.987V35.521c0-4.418-3.582-8-8-8
		s-8,3.582-8,8v37.947c-6.957,1.43-13.379,4.331-18.947,8.346L44.167,59.928c-3.125-3.123-8.189-3.123-11.314,0
		c-3.124,3.125-3.124,8.189,0,11.314l21.885,21.885c-4.864,6.745-8.079,14.749-9.046,23.428c-0.229-0.02-0.458-0.035-0.692-0.035H8
		c-4.418,0-8,3.582-8,8s3.582,8,8,8h37C45.498,132.521,45.984,132.469,46.457,132.382z M95.012,88.452
		c18.546,0,33.635,15.089,33.635,33.635s-15.089,33.635-33.635,33.635c-18.547,0-33.636-15.089-33.636-33.635
		S76.465,88.452,95.012,88.452z"/>
</g>
</svg>