<?xml version="1.0" encoding="iso-8859-1"?><!-- Uploaded to: SVG Repo, www.svgrepo.com, Generator: SVG Repo Mixer Tools -->
<svg fill="#000000" height="800px" width="800px" version="1.1" id="Layer_1"
    xmlns="http://www.w3.org/2000/svg" viewBox="0 0 511.999 511.999" xml:space="preserve">
<g>
	<g>
		<path d="M511.999,88.853c0-36.461-29.664-66.124-66.124-66.124c-29.126,0-54.249,18.76-62.912,45.758
			c-25.227,0.293-48.345,14.815-59.818,37.003c-31.916,0.886-57.611,27.257-57.611,59.545c0,5.796,4.7,10.496,10.496,10.496h215.42
			c5.796,0,10.496-4.699,10.496-10.496c0-11.116-3.046-21.53-8.341-30.444C505.385,122.362,511.999,106.175,511.999,88.853z
			 M287.965,154.539c4.547-16.188,19.338-28.081,36.834-28.081c1.264,0,2.6,0.069,3.972,0.208c4.723,0.479,9.176-2.276,10.863-6.711
			c6.937-18.238,24.661-30.492,44.105-30.492c19.444,0,37.169,12.253,44.105,30.491c1.686,4.437,6.145,7.191,10.864,6.712
			c1.371-0.139,2.706-0.208,3.967-0.208c17.499,0,32.292,11.893,36.839,28.081H287.965z M479.776,118.63
			c-9.763-7.899-22.049-12.769-35.441-13.142c-8.403-16.25-23.052-28.387-40.201-33.838c6.805-16.637,23.068-27.931,41.743-27.931
			c24.886,0,45.132,20.247,45.132,45.132C491.008,100.006,486.984,110.469,479.776,118.63z" />
	</g>
</g>
    <g>
	<g>
		<path d="M98.938,346.88c-5.144-2.663-11.48-0.648-14.143,4.504l-25.46,49.249c-2.663,5.149-0.645,11.482,4.504,14.143
			c1.541,0.798,3.188,1.174,4.811,1.174c3.799,0,7.467-2.07,9.332-5.678l25.46-49.249
			C106.104,355.875,104.087,349.542,98.938,346.88z" />
	</g>
</g>
    <g>
	<g>
		<path d="M123.347,299.668c-5.148-2.663-11.48-0.647-14.144,4.503l-8.077,15.623c-2.663,5.149-0.646,11.483,4.503,14.144
			c1.542,0.798,3.189,1.174,4.812,1.174c3.799,0,7.466-2.07,9.332-5.677l8.077-15.623
			C130.512,308.663,128.495,302.331,123.347,299.668z" />
	</g>
</g>
    <g>
	<g>
		<path d="M510.822,428.542l-93.503-180.873c-1.802-3.487-5.399-5.676-9.323-5.676s-7.521,2.189-9.323,5.676l-81.273,157.213
			L174.726,128.895c-1.802-3.487-5.398-5.676-9.323-5.676c-3.925,0-7.521,2.189-9.323,5.676L1.175,428.542
			c-2.663,5.148-0.646,11.481,4.504,14.143c1.654,0.855,3.43,1.222,5.169,1.162c0.066,0.001,0.131,0.01,0.197,0.01h490.431
			c0.01,0,0.021,0.002,0.03,0.002c1.624,0,3.271-0.377,4.811-1.174C511.467,440.023,513.483,433.691,510.822,428.542z
			 M165.403,156.57l47.241,91.381l-19.302,14.062l-20.993-18.716c-3.977-3.544-9.978-3.551-13.96-0.009l-21.082,18.744
			l-19.217-13.944L165.403,156.57z M27.739,422.865l80.603-155.916l23.469,17.031c1.846,1.339,4.007,2.001,6.162,2.001
			c2.503,0,4.997-0.893,6.976-2.652l20.405-18.142l20.338,18.133c3.688,3.288,9.17,3.561,13.166,0.649l23.538-17.149l80.67,156.048
			H27.739z M407.995,275.345l23.18,44.84l-6.053,4.41l-10.165-9.064c-3.977-3.544-9.978-3.55-13.959-0.009l-10.225,9.091
			l-5.997-4.352L407.995,275.345z M331.733,422.864l43.293-83.744l10.25,7.438c1.846,1.339,4.006,2,6.162,2
			c2.503,0,4.998-0.893,6.977-2.652l9.549-8.49l9.51,8.481c3.689,3.288,9.171,3.56,13.166,0.649l10.29-7.497l43.329,83.815H331.733z
			" />
	</g>
</g>
    <g>
	<g>
		<path d="M368.479,468.279h-22.618c-5.796,0-10.496,4.7-10.496,10.496s4.7,10.496,10.496,10.496h22.618
			c5.797,0,10.496-4.7,10.496-10.496S374.276,468.279,368.479,468.279z" />
	</g>
</g>
    <g>
	<g>
		<path d="M447.286,468.279h-43.12c-5.796,0-10.496,4.7-10.496,10.496s4.7,10.496,10.496,10.496h43.119
			c5.796,0,10.496-4.7,10.496-10.496S453.082,468.279,447.286,468.279z" />
	</g>
</g>
    <g>
	<g>
		<path d="M310.177,468.279H62.406c-5.796,0-10.496,4.7-10.496,10.496s4.7,10.496,10.496,10.496h247.77
			c5.797,0,10.496-4.7,10.496-10.496S315.973,468.279,310.177,468.279z" />
	</g>
</g>
</svg>