<!--suppress CheckTagEmptyBody -->
<svg xmlns="http://www.w3.org/2000/svg" viewBox="0 0 500 500">
    <g id="freepik--background-complete--inject-53">
        <rect y="382.4" width="500" height="0.25" style="fill:#ebebeb"></rect>
        <rect x="416.78" y="398.49" width="33.12" height="0.25" style="fill:#ebebeb"></rect>
        <rect x="322.53" y="401.21" width="8.69" height="0.25" style="fill:#ebebeb"></rect>
        <rect x="396.59" y="389.21" width="19.19" height="0.25" style="fill:#ebebeb"></rect>
        <rect x="52.46" y="390.89" width="43.19" height="0.25" style="fill:#ebebeb"></rect>
        <rect x="104.56" y="390.89" width="6.33" height="0.25" style="fill:#ebebeb"></rect>
        <rect x="131.47" y="395.11" width="93.68" height="0.25" style="fill:#ebebeb"></rect>
        <path
            d="M237,337.8H43.91a5.71,5.71,0,0,1-5.7-5.71V60.66A5.71,5.71,0,0,1,43.91,55H237a5.71,5.71,0,0,1,5.71,5.71V332.09A5.71,5.71,0,0,1,237,337.8ZM43.91,55.2a5.46,5.46,0,0,0-5.45,5.46V332.09a5.46,5.46,0,0,0,5.45,5.46H237a5.47,5.47,0,0,0,5.46-5.46V60.66A5.47,5.47,0,0,0,237,55.2Z"
            style="fill:#ebebeb"></path>
        <path
            d="M453.31,337.8H260.21a5.72,5.72,0,0,1-5.71-5.71V60.66A5.72,5.72,0,0,1,260.21,55h193.1A5.71,5.71,0,0,1,459,60.66V332.09A5.71,5.71,0,0,1,453.31,337.8ZM260.21,55.2a5.47,5.47,0,0,0-5.46,5.46V332.09a5.47,5.47,0,0,0,5.46,5.46h193.1a5.47,5.47,0,0,0,5.46-5.46V60.66a5.47,5.47,0,0,0-5.46-5.46Z"
            style="fill:#ebebeb"></path>
        <polygon
            points="459.02 382.56 459.02 371.6 448.41 371.6 448.41 322.69 439.97 322.69 439.97 306.27 433.34 306.27 433.34 277.57 426.78 277.57 426.78 244.44 424.41 244.44 424.41 277.57 420.64 277.57 420.64 270.81 414.24 270.81 414.24 277.57 409.45 277.57 409.45 306.27 397.79 306.27 397.79 281.52 392.6 281.52 392.6 276.94 386.96 276.94 386.96 281.52 379.57 281.52 379.57 306.27 367.9 306.27 367.9 346.3 348.15 346.3 348.15 336.24 343.97 336.24 343.97 359.94 338.7 359.94 338.7 351.97 331.22 351.97 331.22 344.55 336.58 344.55 336.58 342.52 331.22 342.52 331.22 333.47 326.87 333.47 326.87 298.43 324.19 298.43 324.19 280.47 321.18 280.47 321.18 298.43 315.48 298.43 315.48 333.47 291.22 333.47 291.22 358.27 276.71 358.27 276.71 348.17 268.98 348.17 268.98 321.75 265.64 321.75 265.64 348.17 263.79 348.17 263.79 370.48 251.66 370.48 251.66 358.05 246.79 358.05 246.79 346.43 245.59 346.43 245.59 358.05 238.74 358.05 238.74 348.66 223.73 348.66 223.73 344.19 218.43 344.19 218.43 333.47 215.92 333.47 215.92 344.19 204.14 344.19 204.14 358.05 197.04 358.05 197.04 343.63 177.46 343.63 177.46 358.05 171.66 358.05 171.66 351.22 160.14 351.22 160.14 304.07 157.77 304.07 157.77 351.22 152.07 351.22 152.07 358.05 149.16 358.05 149.16 331.1 143.53 331.1 143.53 320.51 120.63 320.51 120.63 326.61 111.09 326.61 111.09 358.05 104 358.05 104 325.81 84.41 325.81 84.41 358.05 78.61 358.05 78.61 336.61 59.03 336.61 59.03 358.05 56.11 358.05 56.11 307.96 45.88 307.96 45.88 358.05 42.25 358.05 42.25 371.6 35.66 371.6 35.66 382.56 459.02 382.56"
            style="fill:#f5f5f5"></polygon>
        <circle cx="112.98" cy="112.93" r="27.79"
            transform="translate(-32.84 178.14) rotate(-69.08)" style="fill:#ebebeb"></circle>
        <path
            d="M240.13,83.4a4.84,4.84,0,0,0-6.22-4.63,10.21,10.21,0,0,0-10.12-11.71,9.74,9.74,0,0,0-1.88.18,8.94,8.94,0,0,0-16.58,4.52h-.15a8.24,8.24,0,0,0,0,16.48h30.25A4.82,4.82,0,0,0,240.13,83.4Z"
            style="fill:#ebebeb"></path>
        <path
            d="M209.67,234.76a4.83,4.83,0,0,0-4.83-4.83,4.92,4.92,0,0,0-1.39.2,10.21,10.21,0,0,0-10.12-11.71,9.74,9.74,0,0,0-1.88.18,8.94,8.94,0,0,0-16.58,4.52h-.15a8.24,8.24,0,0,0,0,16.48H205A4.82,4.82,0,0,0,209.67,234.76Z"
            style="fill:#ebebeb"></path>
        <path
            d="M447.87,146.15a4.83,4.83,0,0,0-6.21-4.63,10.28,10.28,0,0,0-10.12-11.71,9.77,9.77,0,0,0-1.89.18,8.94,8.94,0,0,0-16.58,4.52h-.14a8.24,8.24,0,0,0,0,16.48h30.25A4.82,4.82,0,0,0,447.87,146.15Z"
            style="fill:#ebebeb"></path>
        <path
            d="M86.12,186.47A4.83,4.83,0,0,1,91,181.64a4.54,4.54,0,0,1,1.39.21,10.45,10.45,0,0,1-.11-1.49,10.23,10.23,0,0,1,10.23-10.23,10.71,10.71,0,0,1,1.89.18,8.93,8.93,0,0,1,16.57,4.52h.15a8.24,8.24,0,0,1,0,16.48H90.82A4.84,4.84,0,0,1,86.12,186.47Z"
            style="fill:#ebebeb"></path>
        <path
            d="M94.27,260.79a3,3,0,0,0-3-3,3,3,0,0,0-.86.12,6.88,6.88,0,0,0,.06-.92,6.36,6.36,0,0,0-6.36-6.36,6.45,6.45,0,0,0-1.17.11,5.55,5.55,0,0,0-10.3,2.81h-.1a5.12,5.12,0,0,0,0,10.24H91.35A3,3,0,0,0,94.27,260.79Z"
            style="fill:#ebebeb"></path>
        <path
            d="M350.11,93.09a3,3,0,0,1,3-3,3.16,3.16,0,0,1,.87.13,5.62,5.62,0,0,1-.07-.92,6.36,6.36,0,0,1,6.36-6.36,6.45,6.45,0,0,1,1.17.11,5.56,5.56,0,0,1,10.31,2.81h.09a5.13,5.13,0,0,1,0,10.25H353A3,3,0,0,1,350.11,93.09Z"
            style="fill:#ebebeb"></path>
        <path
            d="M108.54,99.44c-27.19,9-47.53,21.37-45.43,27.74.93,2.81,6.07,4,13.87,3.63-2.16-.48-3.55-1.33-4-2.55-1.73-5.26,15-15.5,37.47-22.88s42-9.1,43.72-3.84c.41,1.23-.21,2.73-1.66,4.4,6.48-4.35,9.93-8.35,9-11.16C159.47,88.41,135.73,90.5,108.54,99.44Z"
            style="fill:#f5f5f5"></path>
    </g>
    <g id="freepik--Shadow--inject-53">
        <ellipse id="freepik--path--inject-53" cx="250" cy="416.24" rx="193.89" ry="11.32"
            style="fill:#f5f5f5"></ellipse>
    </g>
    <g id="freepik--Globe--inject-53">
        <rect x="312.84" y="356.33" width="8" height="58.77" style="fill:#926CCC"></rect>
        <path
            d="M326.75,392.44l-.68-3.68H307.62l-.68,3.68a6.15,6.15,0,0,1-6,5h0v11.62h31.88V397.45h0A6.14,6.14,0,0,1,326.75,392.44Z"
            style="fill:#926CCC"></path>
        <path
            d="M326.75,392.44l-.68-3.68H307.62l-.68,3.68a6.15,6.15,0,0,1-6,5h0v11.62h31.88V397.45h0A6.14,6.14,0,0,1,326.75,392.44Z"
            style="fill:#fff;opacity:0.5"></path>
        <path d="M355.86,412.1h-78l8.11-12a6.37,6.37,0,0,1,5.28-2.8h51.25a6.37,6.37,0,0,1,5.28,2.8Z"
            style="fill:#926CCC"></path>
        <path d="M355.86,412.1h-78l8.11-12a6.37,6.37,0,0,1,5.28-2.8h51.25a6.37,6.37,0,0,1,5.28,2.8Z"
            style="fill:#fff;opacity:0.30000000000000004"></path>
        <path
            d="M260.45,408.67H373.24a3.62,3.62,0,0,1,3.62,3.62v3.3a0,0,0,0,1,0,0h-120a0,0,0,0,1,0,0v-3.3A3.62,3.62,0,0,1,260.45,408.67Z"
            style="fill:#926CCC"></path>
        <path
            d="M260.45,408.67H373.24a3.62,3.62,0,0,1,3.62,3.62v3.3a0,0,0,0,1,0,0h-120a0,0,0,0,1,0,0v-3.3A3.62,3.62,0,0,1,260.45,408.67Z"
            style="fill:#fff;opacity:0.5"></path>
        <path
            d="M315.18,360.28a132.8,132.8,0,0,1-68.72-19.11l4.12-6.85A125.75,125.75,0,1,0,380.23,118.81l4.13-6.85a133.72,133.72,0,0,1-69.18,248.32Z"
            style="fill:#926CCC"></path>
        <g style="opacity:0.30000000000000004">
            <path
                d="M315.18,360.28a132.8,132.8,0,0,1-68.72-19.11l4.12-6.85A125.75,125.75,0,1,0,380.23,118.81l4.13-6.85a133.72,133.72,0,0,1-69.18,248.32Z"
                style="fill:#fff"></path>
        </g>
        <rect x="176.2" y="225.06" width="278.41" height="3"
            transform="translate(-41.35 379.98) rotate(-58.96)" style="fill:#926CCC"></rect>
        <path d="M390.69,109.4a4.11,4.11,0,1,1-1.4-5.64A4.11,4.11,0,0,1,390.69,109.4Z"
            style="fill:#926CCC"></path>
        <path d="M247.16,348a4.11,4.11,0,1,1-1.4-5.64A4.11,4.11,0,0,1,247.16,348Z"
            style="fill:#926CCC"></path>
        <g style="opacity:0.30000000000000004">
            <path d="M390.69,109.4a4.11,4.11,0,1,1-1.4-5.64A4.11,4.11,0,0,1,390.69,109.4Z"
                style="fill:#fff"></path>
        </g>
        <g style="opacity:0.30000000000000004">
            <path d="M247.16,348a4.11,4.11,0,1,1-1.4-5.64A4.11,4.11,0,0,1,247.16,348Z"
                style="fill:#fff"></path>
        </g>
        <path
            d="M206.87,171.22q2.76-5.4,6-10.4a121.89,121.89,0,0,1,158-42.66c.66.34,1.32.68,2,1a121.5,121.5,0,0,1,34.61,27.56h0a122,122,0,0,1,21.58,124,123.58,123.58,0,0,1-5.11,11.38,121.89,121.89,0,1,1-217.07-111Z"
            style="fill:#926CCC"></path>
        <g style="opacity:0.6000000000000001">
            <path
                d="M206.87,171.22q2.76-5.4,6-10.4a121.89,121.89,0,0,1,158-42.66c.66.34,1.32.68,2,1a121.5,121.5,0,0,1,34.61,27.56h0a122,122,0,0,1,21.58,124,123.58,123.58,0,0,1-5.11,11.38,121.89,121.89,0,1,1-217.07-111Z"
                style="fill:#fff"></path>
        </g>
        <path
            d="M242,288.62c-2.13-.86-4.34,1.16-5.81,3l-6.62,8.2c2.82,3.68.15,8.06-3.19,10.24a122,122,0,0,1-19.54-138.82q2.76-5.4,6-10.4h.36c3.67.14,4.68,3.87,6.17,6.45.33.58,5.17,7.1,5.71,6.27a32.35,32.35,0,0,0-4,8.71,1,1,0,0,0,0,.71c.27.51,1,.18,1.46-.23,1-1,1.89-2.27,3-3.25a5,5,0,0,1,4-1.45c1.45.26,2.58,1.43,4,1.93a6.07,6.07,0,0,0,5.16-.86,20.1,20.1,0,0,0,3.8-3.57c-.24,4.19,4.72,4.11,5.57,8,.28,1.26.49,3,1.78,3.11s2.23-1.55,3.38-1.12c.81.3.93,1.42.65,2.23a9.16,9.16,0,0,0-.86,2.41,2.23,2.23,0,0,0,2.28,2.25c1.08-.07,1.93-.91,2.87-1.46s2.39-.65,2.87.32a1.72,1.72,0,0,1,.15.74c0,1.84-1.76,3.15-3.44,3.91s-3.57,1.39-4.52,3a1.51,1.51,0,0,0,2.07.58,2.55,2.55,0,0,1,.72-.43c.6-.13,1,.52,1.34,1.05a11,11,0,0,0,6.68,5.13l5.7-9.6c.76.36,1.23.55,1.91-.07,1.22,3.69,2.14,7.46,3.73,11.05a2.29,2.29,0,0,1,.3,1.36c-.11.47-.51.83-.71,1.28-.66,1.48,1.07,2.86,2.53,3.57.3.45-.3,1-.84,1a12.5,12.5,0,0,0-1.6-.14,2.07,2.07,0,0,0-1.4,1.79,5.36,5.36,0,0,0,4.41,6.07,1.56,1.56,0,0,0,1-.11c.65-.35.67-1.24.94-1.92,1.07-2.69,3.51-.66,4.42.7,1.22,1.86.87,4.9.24,6.88-.72,2.32-6.45,17.24-.73,17.74a2.43,2.43,0,0,0,1.5-.49c1.35-.93,2.1-2.49,3.3-3.6s3.4-1.53,4.3-.17c.36.55.41,1.25.73,1.82.88,1.59,3.36,1.52,4.49,3a15.65,15.65,0,0,1,1.05,2.27c.39.74,1.29,1.38,2,1s.8-1.74,1.58-2.27,2,.28,2.08,1.27a2.55,2.55,0,0,1-1.64,2.25,3.36,3.36,0,0,0-1.33.75c-.59.71-.17,1.77.26,2.59.68,1.3,1.37,2.6,2.06,3.9a2.16,2.16,0,0,1-2.28.68c-.82-.18-1.58-.58-2.42-.72-4-.64-6.66,4.46-10.64,1.12a2.45,2.45,0,0,0-1.27-3.71c-1.86-.45-4.15,1.35-5.54,0-.49-.45-.66-1.17-1.17-1.61-1.39-1.2-3.44.83-4.43,1.64-3.27,2.68-1.18,4.29-2.88,7.32-.77,1.39-2.43,2-3.41,3.29s-1.14,2.7-2,3.89c-2.31,3.29-5.87-1.29-7.73-2.77.08,2.59-2.86,4.15-5.4,4.59-3.92.67-3.34.74-5.29,3.63a2.52,2.52,0,0,1-2.32,1.22c-1.59-.22-2.21-2.23-3.55-3.1-.65-.42-1.45-.57-2.06-1-1.62-1.22-1.1-3.71-1.54-5.68a5.54,5.54,0,0,0-3.31-3.87,11.32,11.32,0,0,0-1.44,2.73l2,3.38a7.68,7.68,0,0,1,1.29,3.2,6.18,6.18,0,0,0,.18,1.93c.48,1.19,2,1.43,3.21,1.95,2.86,1.26,6.48,5.34,8.7,7.6,2.36,2.42,2.31,4.95,4.46,7.22a.94.94,0,0,1-.35,1.39,2.13,2.13,0,0,1-1.61,0,5.77,5.77,0,0,1-3-2.26c.93,1.39-4.53,2.56-5.3,2.36-1.26-.34-2.34-2-3.46-2.64-2.79-1.63-4.74-1.92-4.48,2.16.1,1.56.15,3.51-1.23,4.24a2,2,0,0,0-2.53-.24,4.23,4.23,0,0,0-1.6,2.19,2.74,2.74,0,0,0-.19,1.82,4.59,4.59,0,0,1,.36.93c.11,1.08-1.44,1.38-2.51,1.26"
            style="fill:#926CCC;opacity:0.4;isolation:isolate"></path>
        <path
            d="M401.09,214c-.54-1.13-2.08-1.25-3.33-1.12s-2.7.29-3.55-.63l2-3.9a1.1,1.1,0,0,0,.16-.78,1,1,0,0,0-.62-.52l-2.55-1.18c-1.09.4.36,2.33-.43,3.18-.35.37-.94.3-1.46.31-4.36.06-4.18,5-3.71,7.87.55,3.33-1.27,6.54-3,9.44-.63,1-1.38,2.15-2.56,2.42s-2.31-.38-3.49-.61c-2-.41-4.1.51-6.17.46-7.27-.16-7.86-8.33-3.44-12.23,2.29-2,2.46-1.32,3.3-4.31.36-1.25,1.42-2.38.65-3.76a2.33,2.33,0,0,0-3.95-.06c-.87,1.44-1.94,2.67-2.06,4.38-1.38-1.52-3.62-2.18-5.49-3.15a2.76,2.76,0,0,1-4.69.56c.48-.82.86-2.1,0-2.53a1.5,1.5,0,0,0-.81-.11c-1.16.06-2.31.35-3.47.3-1.79-.08-5.75-2.54-7.4-.94-.29.28-.48.65-.79.92a1.81,1.81,0,0,1-2.35-.17,2.45,2.45,0,0,1-.52-2.41c.16-.55.49-1,.61-1.61.67-3-3.08-2.32-3.92-3.65-.4-.64-.45-6.34-.22-6.9a6.83,6.83,0,0,1-6.06.06c-2-1.18-2.06-3.3-1.48-5.56s1.91-4.94,2.25-6.73c.18-1,.49-2.08,1.41-2.41,1.15-.42,2.56.7,3.58,0a3.18,3.18,0,0,0,.76-.87,4.31,4.31,0,0,1,6-.57c.85-.09,1.34-1,1.77-1.73s1.25-1.52,2-1.18.71,1.75.24,2.62a11.46,11.46,0,0,1-1.79,2.43,3.58,3.58,0,0,0-1.25,1.83,2.9,2.9,0,0,0,.43,1.63,6.62,6.62,0,0,0,2.63,3.08,2.82,2.82,0,0,0,3.65-.79,5.64,5.64,0,0,1,.52-1c.62-.71,1.81-.45,2.59.09a8.39,8.39,0,0,0,2.33,1.59c.91.26,2.15-.46,1.88-1.36,1.31.18,3,.81,2.86,2.13a3.47,3.47,0,0,1-.47,1.17c-1.17,2.34,0,7.2,3.21,5.79,2.13-.92,1.41-5,4.41-5.09,1.44,0,2.66,1.29,4.1,1.21.55-.23.25-1.08-.2-1.49a5.55,5.55,0,0,0-5.31-1.15c0-1.7,2.09-3.16,1.45-4.72s-3.4-1.56-3.62-3.22a2.7,2.7,0,0,1,.32-1.38c.94-2.18,3.59-5.69.81-7.58a5,5,0,0,1-1-.71c-.82-.93-.06-2.35.69-3.33,1.36.1,2.12,1.54,2.9,2.67s2.43,2.1,3.39,1.13c.69-.69.58-2.06,1.48-2.45.42-.18.93-.06,1.32-.29.95-.55.11-2,.38-3.1.36-1.46,2.54-1.4,3.83-.6s2.55,2,4,1.79c.47-.08.91-.3,1.37-.42,1.44-.35,2.9.31,4.23,1,2.11,1,1.83-10,2.05-10.57,1.71-4.17,6.9-4.17,10.56-5.49a26.67,26.67,0,0,0,5.34-2.92c27.93,32.2,37.14,78,23.6,118.46a40.49,40.49,0,0,1-2.05,5.39c-2.11-2-5-5.82-8.28-5.63-4.17.26-4.32,6.18-8.72,5.66-.9-.48.14-1.84,0-2.85a3.63,3.63,0,0,0-.87-1.45c-.34-.46-.52-1.17-.09-1.55-.47-1-2-.81-3.07-.5a7.43,7.43,0,0,1-4,.23c-2.69-.75-4-3.65-5.59-5.95a37.4,37.4,0,0,0-4.58-5.17c.91.55,2.07-.51,2.16-1.57a11,11,0,0,0-.65-3.11c-.38-1.78,1.16-2.82,1-4.59-.2-2.19-1.64-4.41-.8-6.44,1-2.47,4.4-2.62,7.05-2.35.22-3.27-2-6.73-.47-9.64a8.45,8.45,0,0,1,2.64-2.65l6.19-4.61a4.5,4.5,0,0,0,2-2.41c.27-1.22-.51-2.41-1.24-3.42l-2.38-3.3a2.77,2.77,0,0,0-1.23-1.1,2.4,2.4,0,0,0-1.72.29,13,13,0,0,0-6.51,6.9,52.72,52.72,0,0,1-9.52-8.88c-.75,2.41-2.93,4.37-3.32,6.79"
            style="fill:#926CCC;opacity:0.4;isolation:isolate"></path>
        <path
            d="M302.3,185.51a4.83,4.83,0,0,0-3.54,2.13,20.7,20.7,0,0,0-.95,2.45,2.41,2.41,0,0,1-1.92,1.6c-1.12,0-1.86-1.12-2.37-2.12a3.62,3.62,0,0,1-.59-2.6,18.61,18.61,0,0,1,.95-1.75c.51-1.22-.1-2.57-.49-3.83s-.41-2.94.74-3.57c.76-.42,1.75-.2,2.53-.58,1.9-.92,1-4.09,2.62-5,2-1.06,4.24,1.19,5.32,2.8s1.39,3.75,1.8,5.62C307.57,186,306.78,184.86,302.3,185.51Z"
            style="fill:#926CCC;opacity:0.4;isolation:isolate"></path>
        <path
            d="M291.39,107.22c26.25-6.28,55.7-1.22,79.49,10.94.66.34,1.32.68,2,1,1.29,5.15-.52,12.69-7.37,10.72-.35.67-.05,1,0,1.76.09,1.13-1.36,1.73-2.48,1.63-3.7-.32-7.36-2.32-9,2-2,5.22,2,3.3,3.6,6.41a6.57,6.57,0,0,1,.35,1.47c.44,1.81,2.35,2.79,4.05,3.54a2.12,2.12,0,0,1,2.54-1.81,3.51,3.51,0,0,0,1.29.3c.95-.14,1-1.59.42-2.32s-1.59-1.07-2.29-1.74-.93-2-.08-2.45a1.71,1.71,0,0,1,1.18,0,5.2,5.2,0,0,1,3.54,3.31,2.1,2.1,0,0,1,3.43,2.22c-.46,1.29-2.13,2.5-1.35,3.62a3,3,0,0,0-3.11-.55c-4.05,1.65-6.29,9.62-12.28,5a29.54,29.54,0,0,0-2.79-2.34,2.78,2.78,0,0,0-3.37.13c-.34-2.73-4.12-4.16-4.19-6.91a2.92,2.92,0,0,1,2.2-2.84,1.45,1.45,0,0,0,.61-.22c.33-.29.2-.83.35-1.24.25-.72,1.25-.87,1.69-1.49.61-.87-.16-2-1-2.75s-1.73-1.63-1.44-2.66c.11-.34.35-.64.45-1a1.84,1.84,0,0,0-.83-1.89,5.42,5.42,0,0,0-2.06-.7c-.62.14-.8,1-.63,1.56a11.63,11.63,0,0,1,.62,1.77c0,.35-3.73,5.51-3.23,5.58-2.37-.35-6.7-2.47-7.39,1-.25,1.22-.2,2.64-1.13,3.46,1.61.34,3.23.69,4.83,1.07.11.63-.78,1-1.41.81s-1.27-.51-1.87-.27a2,2,0,0,0-.91,1l-2.25,3.8c-.82,1.37-1.85,2.89-3.43,3.08-1.8.21-3.31-1.49-3.83-3.23a1.68,1.68,0,0,0-.63-1.1,1.63,1.63,0,0,0-1.15,0,6.6,6.6,0,0,1-5.89-1.11,4.29,4.29,0,0,1-.87-5.59c.48-.64,1.23-1.33.93-2.07-.18-.44-.71-.75-.65-1.22s.89-.61,1.48-.71a2.36,2.36,0,0,0,1.93-2.22c0-.55-3.06-4.18-3.82-4.2-1.75-.05-3.44,3.81-4.37,5.16a2.37,2.37,0,0,1-1.4,1.19c-1,.16-1.7-.91-1.89-1.88a6.66,6.66,0,0,0-.72-2.83,4.05,4.05,0,0,0-1.36-1,4.34,4.34,0,0,0-3.29-.8c-.51.16-.95.52-1.47.69a3.35,3.35,0,0,1-3.29-1.24c-.84-.91-1.44-2-2.36-2.87-1.94-1.78-5.08-2-6.6-4.21-.74-1-.72-2.85.5-3.24,1-.33,2.47.56,3.15-.3s-.91-3.33-.88-4.34c0-.8,1.31-1.62,1.2-3.18C292.77,109.63,291.49,108.59,291.39,107.22Z"
            style="fill:#926CCC;opacity:0.4;isolation:isolate"></path>
        <path
            d="M343.65,331.14c1.73-.2,3.43.06,4.8-1.48,1.86-2.09,1.09-3.79-1.77-4.14a1.18,1.18,0,0,1-.71-.25c-.57-.58.45-1.35,1.2-1.68a5.52,5.52,0,0,0,3-4.37c.06-.43,6.89,2.92,7.42,3.71,1.86,2.78-2.72,7.44.78,8.07,1.3-2,2.32-4.24,3.44-6.37l3.14,1.49c-.78-.37,1.72-4.07,2.2-4.36,1.88-1.14,4.64,1.19,6-2.11,1.72-4.17-5.58-9-7-3.94a22.56,22.56,0,0,1-8.16-2.94c-.48.78-.95,1.58-1.42,2.36a2.45,2.45,0,0,1-2.07-.89,6.88,6.88,0,0,1,3.94-6.5c-.18-1.81,1.8-3,3.48-3.7-1.75-3.54,1.8-8.37,5.7-7.76s5.81,6.3,3.06,9.13a8.83,8.83,0,0,1,3.34,4.28,11.55,11.55,0,0,1,12.29-5.34c2.34.55,4.78,1.85,7,1,1-.38,1.8-1.16,2.77-1.61,2.2-1,4.74-.1,6.94.89q2.21,1,4.33,2.15A122,122,0,0,1,335.12,347a4.92,4.92,0,0,1-2-1.47c-.87-1.28-.45-3,0-4.49,1.77-5.78,4-8.78,10-9.83Z"
            style="fill:#926CCC;opacity:0.4;isolation:isolate"></path>
        <path
            d="M242,288.62c-2.13-.86-4.34,1.16-5.81,3l-6.62,8.2c2.82,3.68.15,8.06-3.19,10.24a122,122,0,0,1-19.54-138.82q2.76-5.4,6-10.4h.36c3.67.14,4.68,3.87,6.17,6.45.33.58,5.17,7.1,5.71,6.27a32.35,32.35,0,0,0-4,8.71,1,1,0,0,0,0,.71c.27.51,1,.18,1.46-.23,1-1,1.89-2.27,3-3.25a5,5,0,0,1,4-1.45c1.45.26,2.58,1.43,4,1.93a6.07,6.07,0,0,0,5.16-.86,20.1,20.1,0,0,0,3.8-3.57c-.24,4.19,4.72,4.11,5.57,8,.28,1.26.49,3,1.78,3.11s2.23-1.55,3.38-1.12c.81.3.93,1.42.65,2.23a9.16,9.16,0,0,0-.86,2.41,2.23,2.23,0,0,0,2.28,2.25c1.08-.07,1.93-.91,2.87-1.46s2.39-.65,2.87.32a1.72,1.72,0,0,1,.15.74c0,1.84-1.76,3.15-3.44,3.91s-3.57,1.39-4.52,3a1.51,1.51,0,0,0,2.07.58,2.55,2.55,0,0,1,.72-.43c.6-.13,1,.52,1.34,1.05a11,11,0,0,0,6.68,5.13l5.7-9.6c.76.36,1.23.55,1.91-.07,1.22,3.69,2.14,7.46,3.73,11.05a2.29,2.29,0,0,1,.3,1.36c-.11.47-.51.83-.71,1.28-.66,1.48,1.07,2.86,2.53,3.57.3.45-.3,1-.84,1a12.5,12.5,0,0,0-1.6-.14,2.07,2.07,0,0,0-1.4,1.79,5.36,5.36,0,0,0,4.41,6.07,1.56,1.56,0,0,0,1-.11c.65-.35.67-1.24.94-1.92,1.07-2.69,3.51-.66,4.42.7,1.22,1.86.87,4.9.24,6.88-.72,2.32-6.45,17.24-.73,17.74a2.43,2.43,0,0,0,1.5-.49c1.35-.93,2.1-2.49,3.3-3.6s3.4-1.53,4.3-.17c.36.55.41,1.25.73,1.82.88,1.59,3.36,1.52,4.49,3a15.65,15.65,0,0,1,1.05,2.27c.39.74,1.29,1.38,2,1s.8-1.74,1.58-2.27,2,.28,2.08,1.27a2.55,2.55,0,0,1-1.64,2.25,3.36,3.36,0,0,0-1.33.75c-.59.71-.17,1.77.26,2.59.68,1.3,1.37,2.6,2.06,3.9a2.16,2.16,0,0,1-2.28.68c-.82-.18-1.58-.58-2.42-.72-4-.64-6.66,4.46-10.64,1.12a2.45,2.45,0,0,0-1.27-3.71c-1.86-.45-4.15,1.35-5.54,0-.49-.45-.66-1.17-1.17-1.61-1.39-1.2-3.44.83-4.43,1.64-3.27,2.68-1.18,4.29-2.88,7.32-.77,1.39-2.43,2-3.41,3.29s-1.14,2.7-2,3.89c-2.31,3.29-5.87-1.29-7.73-2.77.08,2.59-2.86,4.15-5.4,4.59-3.92.67-3.34.74-5.29,3.63a2.52,2.52,0,0,1-2.32,1.22c-1.59-.22-2.21-2.23-3.55-3.1-.65-.42-1.45-.57-2.06-1-1.62-1.22-1.1-3.71-1.54-5.68a5.54,5.54,0,0,0-3.31-3.87,11.32,11.32,0,0,0-1.44,2.73l2,3.38a7.68,7.68,0,0,1,1.29,3.2,6.18,6.18,0,0,0,.18,1.93c.48,1.19,2,1.43,3.21,1.95,2.86,1.26,6.48,5.34,8.7,7.6,2.36,2.42,2.31,4.95,4.46,7.22a.94.94,0,0,1-.35,1.39,2.13,2.13,0,0,1-1.61,0,5.77,5.77,0,0,1-3-2.26c.93,1.39-4.53,2.56-5.3,2.36-1.26-.34-2.34-2-3.46-2.64-2.79-1.63-4.74-1.92-4.48,2.16.1,1.56.15,3.51-1.23,4.24a2,2,0,0,0-2.53-.24,4.23,4.23,0,0,0-1.6,2.19,2.74,2.74,0,0,0-.19,1.82,4.59,4.59,0,0,1,.36.93c.11,1.08-1.44,1.38-2.51,1.26"
            style="fill:#fff;opacity:0.7000000000000001;isolation:isolate"></path>
        <path
            d="M401.09,214c-.54-1.13-2.08-1.25-3.33-1.12s-2.7.29-3.55-.63l2-3.9a1.1,1.1,0,0,0,.16-.78,1,1,0,0,0-.62-.52l-2.55-1.18c-1.09.4.36,2.33-.43,3.18-.35.37-.94.3-1.46.31-4.36.06-4.18,5-3.71,7.87.55,3.33-1.27,6.54-3,9.44-.63,1-1.38,2.15-2.56,2.42s-2.31-.38-3.49-.61c-2-.41-4.1.51-6.17.46-7.27-.16-7.86-8.33-3.44-12.23,2.29-2,2.46-1.32,3.3-4.31.36-1.25,1.42-2.38.65-3.76a2.33,2.33,0,0,0-3.95-.06c-.87,1.44-1.94,2.67-2.06,4.38-1.38-1.52-3.62-2.18-5.49-3.15a2.76,2.76,0,0,1-4.69.56c.48-.82.86-2.1,0-2.53a1.5,1.5,0,0,0-.81-.11c-1.16.06-2.31.35-3.47.3-1.79-.08-5.75-2.54-7.4-.94-.29.28-.48.65-.79.92a1.81,1.81,0,0,1-2.35-.17,2.45,2.45,0,0,1-.52-2.41c.16-.55.49-1,.61-1.61.67-3-3.08-2.32-3.92-3.65-.4-.64-.45-6.34-.22-6.9a6.83,6.83,0,0,1-6.06.06c-2-1.18-2.06-3.3-1.48-5.56s1.91-4.94,2.25-6.73c.18-1,.49-2.08,1.41-2.41,1.15-.42,2.56.7,3.58,0a3.18,3.18,0,0,0,.76-.87,4.31,4.31,0,0,1,6-.57c.85-.09,1.34-1,1.77-1.73s1.25-1.52,2-1.18.71,1.75.24,2.62a11.46,11.46,0,0,1-1.79,2.43,3.58,3.58,0,0,0-1.25,1.83,2.9,2.9,0,0,0,.43,1.63,6.62,6.62,0,0,0,2.63,3.08,2.82,2.82,0,0,0,3.65-.79,5.64,5.64,0,0,1,.52-1c.62-.71,1.81-.45,2.59.09a8.39,8.39,0,0,0,2.33,1.59c.91.26,2.15-.46,1.88-1.36,1.31.18,3,.81,2.86,2.13a3.47,3.47,0,0,1-.47,1.17c-1.17,2.34,0,7.2,3.21,5.79,2.13-.92,1.41-5,4.41-5.09,1.44,0,2.66,1.29,4.1,1.21.55-.23.25-1.08-.2-1.49a5.55,5.55,0,0,0-5.31-1.15c0-1.7,2.09-3.16,1.45-4.72s-3.4-1.56-3.62-3.22a2.7,2.7,0,0,1,.32-1.38c.94-2.18,3.59-5.69.81-7.58a5,5,0,0,1-1-.71c-.82-.93-.06-2.35.69-3.33,1.36.1,2.12,1.54,2.9,2.67s2.43,2.1,3.39,1.13c.69-.69.58-2.06,1.48-2.45.42-.18.93-.06,1.32-.29.95-.55.11-2,.38-3.1.36-1.46,2.54-1.4,3.83-.6s2.55,2,4,1.79c.47-.08.91-.3,1.37-.42,1.44-.35,2.9.31,4.23,1,2.11,1,1.83-10,2.05-10.57,1.71-4.17,6.9-4.17,10.56-5.49a26.67,26.67,0,0,0,5.34-2.92c27.93,32.2,37.14,78,23.6,118.46a40.49,40.49,0,0,1-2.05,5.39c-2.11-2-5-5.82-8.28-5.63-4.17.26-4.32,6.18-8.72,5.66-.9-.48.14-1.84,0-2.85a3.63,3.63,0,0,0-.87-1.45c-.34-.46-.52-1.17-.09-1.55-.47-1-2-.81-3.07-.5a7.43,7.43,0,0,1-4,.23c-2.69-.75-4-3.65-5.59-5.95a37.4,37.4,0,0,0-4.58-5.17c.91.55,2.07-.51,2.16-1.57a11,11,0,0,0-.65-3.11c-.38-1.78,1.16-2.82,1-4.59-.2-2.19-1.64-4.41-.8-6.44,1-2.47,4.4-2.62,7.05-2.35.22-3.27-2-6.73-.47-9.64a8.45,8.45,0,0,1,2.64-2.65l6.19-4.61a4.5,4.5,0,0,0,2-2.41c.27-1.22-.51-2.41-1.24-3.42l-2.38-3.3a2.77,2.77,0,0,0-1.23-1.1,2.4,2.4,0,0,0-1.72.29,13,13,0,0,0-6.51,6.9,52.72,52.72,0,0,1-9.52-8.88c-.75,2.41-2.93,4.37-3.32,6.79"
            style="fill:#fff;opacity:0.7000000000000001;isolation:isolate"></path>
        <path
            d="M302.3,185.51a4.83,4.83,0,0,0-3.54,2.13,20.7,20.7,0,0,0-.95,2.45,2.41,2.41,0,0,1-1.92,1.6c-1.12,0-1.86-1.12-2.37-2.12a3.62,3.62,0,0,1-.59-2.6,18.61,18.61,0,0,1,.95-1.75c.51-1.22-.1-2.57-.49-3.83s-.41-2.94.74-3.57c.76-.42,1.75-.2,2.53-.58,1.9-.92,1-4.09,2.62-5,2-1.06,4.24,1.19,5.32,2.8s1.39,3.75,1.8,5.62C307.57,186,306.78,184.86,302.3,185.51Z"
            style="fill:#fff;opacity:0.7000000000000001;isolation:isolate"></path>
        <path
            d="M291.39,107.22c26.25-6.28,55.7-1.22,79.49,10.94.66.34,1.32.68,2,1,1.29,5.15-.52,12.69-7.37,10.72-.35.67-.05,1,0,1.76.09,1.13-1.36,1.73-2.48,1.63-3.7-.32-7.36-2.32-9,2-2,5.22,2,3.3,3.6,6.41a6.57,6.57,0,0,1,.35,1.47c.44,1.81,2.35,2.79,4.05,3.54a2.12,2.12,0,0,1,2.54-1.81,3.51,3.51,0,0,0,1.29.3c.95-.14,1-1.59.42-2.32s-1.59-1.07-2.29-1.74-.93-2-.08-2.45a1.71,1.71,0,0,1,1.18,0,5.2,5.2,0,0,1,3.54,3.31,2.1,2.1,0,0,1,3.43,2.22c-.46,1.29-2.13,2.5-1.35,3.62a3,3,0,0,0-3.11-.55c-4.05,1.65-6.29,9.62-12.28,5a29.54,29.54,0,0,0-2.79-2.34,2.78,2.78,0,0,0-3.37.13c-.34-2.73-4.12-4.16-4.19-6.91a2.92,2.92,0,0,1,2.2-2.84,1.45,1.45,0,0,0,.61-.22c.33-.29.2-.83.35-1.24.25-.72,1.25-.87,1.69-1.49.61-.87-.16-2-1-2.75s-1.73-1.63-1.44-2.66c.11-.34.35-.64.45-1a1.84,1.84,0,0,0-.83-1.89,5.42,5.42,0,0,0-2.06-.7c-.62.14-.8,1-.63,1.56a11.63,11.63,0,0,1,.62,1.77c0,.35-3.73,5.51-3.23,5.58-2.37-.35-6.7-2.47-7.39,1-.25,1.22-.2,2.64-1.13,3.46,1.61.34,3.23.69,4.83,1.07.11.63-.78,1-1.41.81s-1.27-.51-1.87-.27a2,2,0,0,0-.91,1l-2.25,3.8c-.82,1.37-1.85,2.89-3.43,3.08-1.8.21-3.31-1.49-3.83-3.23a1.68,1.68,0,0,0-.63-1.1,1.63,1.63,0,0,0-1.15,0,6.6,6.6,0,0,1-5.89-1.11,4.29,4.29,0,0,1-.87-5.59c.48-.64,1.23-1.33.93-2.07-.18-.44-.71-.75-.65-1.22s.89-.61,1.48-.71a2.36,2.36,0,0,0,1.93-2.22c0-.55-3.06-4.18-3.82-4.2-1.75-.05-3.44,3.81-4.37,5.16a2.37,2.37,0,0,1-1.4,1.19c-1,.16-1.7-.91-1.89-1.88a6.66,6.66,0,0,0-.72-2.83,4.05,4.05,0,0,0-1.36-1,4.34,4.34,0,0,0-3.29-.8c-.51.16-.95.52-1.47.69a3.35,3.35,0,0,1-3.29-1.24c-.84-.91-1.44-2-2.36-2.87-1.94-1.78-5.08-2-6.6-4.21-.74-1-.72-2.85.5-3.24,1-.33,2.47.56,3.15-.3s-.91-3.33-.88-4.34c0-.8,1.31-1.62,1.2-3.18C292.77,109.63,291.49,108.59,291.39,107.22Z"
            style="fill:#fff;opacity:0.7000000000000001;isolation:isolate"></path>
        <path
            d="M343.65,331.14c1.73-.2,3.43.06,4.8-1.48,1.86-2.09,1.09-3.79-1.77-4.14a1.18,1.18,0,0,1-.71-.25c-.57-.58.45-1.35,1.2-1.68a5.52,5.52,0,0,0,3-4.37c.06-.43,6.89,2.92,7.42,3.71,1.86,2.78-2.72,7.44.78,8.07,1.3-2,2.32-4.24,3.44-6.37l3.14,1.49c-.78-.37,1.72-4.07,2.2-4.36,1.88-1.14,4.64,1.19,6-2.11,1.72-4.17-5.58-9-7-3.94a22.56,22.56,0,0,1-8.16-2.94c-.48.78-.95,1.58-1.42,2.36a2.45,2.45,0,0,1-2.07-.89,6.88,6.88,0,0,1,3.94-6.5c-.18-1.81,1.8-3,3.48-3.7-1.75-3.54,1.8-8.37,5.7-7.76s5.81,6.3,3.06,9.13a8.83,8.83,0,0,1,3.34,4.28,11.55,11.55,0,0,1,12.29-5.34c2.34.55,4.78,1.85,7,1,1-.38,1.8-1.16,2.77-1.61,2.2-1,4.74-.1,6.94.89q2.21,1,4.33,2.15A122,122,0,0,1,335.12,347a4.92,4.92,0,0,1-2-1.47c-.87-1.28-.45-3,0-4.49,1.77-5.78,4-8.78,10-9.83Z"
            style="fill:#fff;opacity:0.7000000000000001;isolation:isolate"></path>
        <path
            d="M321.3,136.92l5.3,5.42L332,137a7.58,7.58,0,0,0,.12-10.72h0a7.57,7.57,0,0,0-10.72-.12h0A7.58,7.58,0,0,0,321.3,136.92Zm3.22-3.15a3.08,3.08,0,1,1,4.35,0A3.09,3.09,0,0,1,324.52,133.77Z"
            style="fill:#926CCC"></path>
        <path
            d="M321.42,126.2a7.56,7.56,0,0,1,5.43-2.16l-.05,4.5a3.13,3.13,0,0,0-2.24.87,3.09,3.09,0,0,0,2.17,5.29l-.08,7.59,0,.05-5.3-5.42A7.58,7.58,0,0,1,321.42,126.2Z"
            style="opacity:0.2;isolation:isolate"></path>
        <path
            d="M223.45,290.6l5.3,5.42,5.42-5.3a7.58,7.58,0,0,0,.12-10.72h0a7.58,7.58,0,0,0-10.72-.12h0A7.58,7.58,0,0,0,223.45,290.6Zm3.22-3.14a3.08,3.08,0,1,1,4.35.05A3.09,3.09,0,0,1,226.67,287.46Z"
            style="fill:#926CCC"></path>
        <path
            d="M223.57,279.88a7.6,7.6,0,0,1,5.43-2.16l-.05,4.5a3.08,3.08,0,0,0-2.28,5.24,3.06,3.06,0,0,0,2.21.92L228.8,296l-.05,0-5.3-5.42A7.58,7.58,0,0,1,223.57,279.88Z"
            style="opacity:0.2;isolation:isolate"></path>
        <path
            d="M219.72,190.42l5.3,5.42,5.43-5.3a7.59,7.59,0,0,0,.12-10.72h0a7.58,7.58,0,0,0-10.72-.12h0A7.58,7.58,0,0,0,219.72,190.42Zm3.22-3.14a3.08,3.08,0,1,1,4.36.05A3.08,3.08,0,0,1,222.94,187.28Z"
            style="fill:#926CCC"></path>
        <path
            d="M219.85,179.7a7.55,7.55,0,0,1,5.43-2.16l-.05,4.5a3.08,3.08,0,1,0-.07,6.16l-.09,7.59,0,.05-5.29-5.42A7.57,7.57,0,0,1,219.85,179.7Z"
            style="opacity:0.2;isolation:isolate"></path>
        <path
            d="M358.92,298.58l5.3,5.42,5.42-5.3a7.57,7.57,0,0,0,.12-10.72h0a7.58,7.58,0,0,0-10.72-.12h0A7.59,7.59,0,0,0,358.92,298.58Zm3.22-3.14a3.08,3.08,0,1,1,4.36.05A3.08,3.08,0,0,1,362.14,295.44Z"
            style="fill:#926CCC"></path>
        <path
            d="M359,287.86a7.61,7.61,0,0,1,5.44-2.16l-.05,4.51a3,3,0,0,0-2.24.87,3.08,3.08,0,0,0,2.17,5.28l-.09,7.59,0,.05-5.3-5.42A7.58,7.58,0,0,1,359,287.86Z"
            style="opacity:0.2;isolation:isolate"></path>
        <path
            d="M417.08,203.37l5.3,5.42,5.42-5.3a7.58,7.58,0,0,0,.12-10.72h0a7.59,7.59,0,0,0-10.72-.12h0A7.58,7.58,0,0,0,417.08,203.37Zm3.22-3.14a3.08,3.08,0,1,1,4.35.05A3.09,3.09,0,0,1,420.3,200.23Z"
            style="fill:#926CCC"></path>
        <path
            d="M417.2,192.65a7.55,7.55,0,0,1,5.43-2.15l-.05,4.5a3,3,0,0,0-2.24.87,3.09,3.09,0,0,0,0,4.36,3,3,0,0,0,2.21.92l-.08,7.6-.05,0-5.3-5.42A7.58,7.58,0,0,1,417.2,192.65Z"
            style="opacity:0.2;isolation:isolate"></path>
        <path
            d="M344.69,191.66l5.3,5.42,5.42-5.3a7.58,7.58,0,0,0,.12-10.72h0a7.58,7.58,0,0,0-10.72-.13h0A7.59,7.59,0,0,0,344.69,191.66Zm3.22-3.15a3.08,3.08,0,1,1,4.36.05A3.08,3.08,0,0,1,347.91,188.51Z"
            style="fill:#926CCC"></path>
        <path
            d="M344.81,180.93a7.55,7.55,0,0,1,5.43-2.15l-.05,4.5a3,3,0,0,0-2.23.87,3.08,3.08,0,0,0,0,4.36,3,3,0,0,0,2.21.92L350,197l-.05.05-5.3-5.42A7.59,7.59,0,0,1,344.81,180.93Z"
            style="opacity:0.2;isolation:isolate"></path>
        <polygon points="315.08 162.3 320.21 154.31 326.72 162.3 315.08 162.3"
            style="fill:#926CCC"></polygon>
        <polygon points="315.08 162.3 320.21 154.31 326.72 162.3 315.08 162.3"
            style="fill:#fff;opacity:0.8"></polygon>
        <polygon points="320.12 155.44 319.6 163.41 320.9 163.41 320.12 155.44"
            style="opacity:0.2;isolation:isolate"></polygon>
        <path d="M307.59,161.37l4.63,6h17.19l4.69-7.83A158.19,158.19,0,0,1,307.59,161.37Z"
            style="fill:#fff"></path>
        <polygon points="280.9 281.26 275.77 273.27 269.26 281.26 280.9 281.26"
            style="fill:#926CCC"></polygon>
        <polygon points="280.9 281.26 275.77 273.27 269.26 281.26 280.9 281.26"
            style="fill:#fff;opacity:0.8"></polygon>
        <polygon points="275.86 274.4 276.38 282.38 275.08 282.38 275.86 274.4"
            style="opacity:0.2;isolation:isolate"></polygon>
        <path d="M288.39,280.33l-4.62,6h-17.2l-4.69-7.84A157,157,0,0,0,288.39,280.33Z"
            style="fill:#fff"></path>
        <polygon points="391.35 293.73 396.47 285.74 402.99 293.73 391.35 293.73"
            style="fill:#926CCC"></polygon>
        <polygon points="391.35 293.73 396.47 285.74 402.99 293.73 391.35 293.73"
            style="fill:#fff;opacity:0.8"></polygon>
        <polygon points="396.39 286.87 395.87 294.85 397.17 294.85 396.39 286.87"
            style="opacity:0.2;isolation:isolate"></polygon>
        <path d="M383.85,292.8l4.63,6h17.2l4.69-7.84A157.14,157.14,0,0,1,383.85,292.8Z"
            style="fill:#fff"></path>
        <path d="M321.29,173l-2-.42c.33-1.58.59-2.46.6-2.5l1.92.56S321.61,171.48,321.29,173Z"
            style="fill:#926CCC"></path>
        <path
            d="M385.53,280.08a33.29,33.29,0,0,0-2.94-4l1.53-1.28a34,34,0,0,1,3.12,4.28Zm-8.62-9.81c-1.17-1.06-2.43-2.15-3.87-3.34l1.27-1.54c1.46,1.21,2.75,2.32,3.94,3.39Zm-10.31-8.43q-2-1.54-4.1-3.12l1.21-1.59,4.11,3.12Zm-10.67-8.12c-1.35-1.05-2.71-2.11-4.07-3.2l1.25-1.56c1.35,1.08,2.7,2.13,4.05,3.17Zm-10.44-8.5c-1.36-1.18-2.65-2.36-3.85-3.48l1.37-1.46c1.18,1.11,2.46,2.26,3.79,3.43Zm-9.69-9.41c-1.19-1.33-2.33-2.66-3.37-4l1.57-1.24c1,1.28,2.12,2.58,3.29,3.88ZM327.64,225c-.91-1.48-1.76-3-2.55-4.57l1.79-.9c.76,1.5,1.59,3,2.46,4.43Zm-5.83-12.26c-.58-1.63-1.1-3.31-1.55-5l1.93-.52c.44,1.63.95,3.26,1.5,4.84Zm-3.25-13.17c-.25-1.7-.45-3.45-.58-5.19l2-.16c.13,1.7.32,3.4.57,5Zm1.22-13.48-2-.06c.05-1.73.15-3.48.32-5.2l2,.18C319.93,182.68,319.83,184.39,319.78,186.08Z"
            style="fill:#926CCC"></path>
        <path d="M390.33,289.78l-2-.08a14,14,0,0,0-.1-2.33l2-.25A17,17,0,0,1,390.33,289.78Z"
            style="fill:#926CCC"></path>
        <path
            d="M403.53,218.27l-1.74-1c.77-1.35,1.14-2.13,1.14-2.14l1.81.86S404.34,216.84,403.53,218.27Z"
            style="fill:#926CCC"></path>
        <path
            d="M300.65,281.93l-.34-2c1.58-.26,3.14-.54,4.67-.84l.38,2C303.81,281.38,302.24,281.67,300.65,281.93Zm12.21-2.44-.46-1.95c1.56-.36,3.09-.74,4.6-1.14l.51,1.94C316,278.74,314.43,279.12,312.86,279.49Zm12-3.25-.59-1.91c1.53-.47,3-1,4.51-1.46l.64,1.89Q327.21,275.52,324.88,276.24Zm11.77-4.1-.73-1.86c1.47-.57,2.94-1.17,4.39-1.79l.78,1.84C339.63,271,338.13,271.56,336.65,272.14Zm11.43-5-.87-1.8c1.42-.69,2.85-1.41,4.23-2.13l.92,1.77C351,265.73,349.53,266.46,348.08,267.16Zm11-5.89-1-1.72q2.07-1.23,4-2.48l1.07,1.69C361.84,259.6,360.46,260.44,359.07,261.27Zm10.46-6.81-1.16-1.63c1.28-.91,2.56-1.86,3.8-2.82l1.22,1.59C372.13,252.57,370.83,253.53,369.53,254.46Zm9.81-7.71-1.3-1.52c1.19-1,2.38-2.09,3.52-3.15l1.36,1.46C381.76,244.62,380.56,245.7,379.34,246.75Zm9.05-8.61L387,236.76c1.08-1.14,2.16-2.31,3.19-3.48l1.5,1.32C390.59,235.79,389.5,237,388.39,238.14Zm8.15-9.48L395,227.44c1-1.26,1.91-2.54,2.79-3.81l1.64,1.15C398.49,226.07,397.53,227.37,396.54,228.66Z"
            style="fill:#926CCC"></path>
        <path d="M290.55,283.37l-.24-2,2.47-.31.26,2Z" style="fill:#926CCC"></path>
        <path d="M231.83,149.29c-.85-.84-1.4-1.47-1.7-1.81l1.45-1.38,0,.06c.28.32.81.92,1.6,1.71Z"
            style="fill:#926CCC"></path>
        <path
            d="M289.35,167l0-2c1.65,0,3.35-.08,5-.16l.09,2C292.74,166.87,291,166.92,289.35,167Zm-8.17-.12c-1.72-.08-3.44-.19-5.11-.33l.18-2c1.64.15,3.33.26,5,.33ZM268,165.49c-1.71-.28-3.4-.6-5-1l.43-1.95c1.6.35,3.26.66,4.93.93Zm-13-3.08c-1.65-.53-3.28-1.11-4.84-1.73l.74-1.86c1.52.61,3.1,1.17,4.71,1.69Zm-12.3-5.22c-1.54-.85-3-1.75-4.41-2.68l1.12-1.66c1.34.9,2.77,1.77,4.26,2.59Z"
            style="fill:#926CCC"></path>
        <path d="M302.63,166.18l-.2-2,2.47-.26.23,2Z" style="fill:#926CCC"></path>
        <path d="M275.88,292.85c-.6-1.37-1-2.17-1-2.17l1.76-1s.47.87,1.1,2.34Z"
            style="fill:#926CCC"></path>
        <path
            d="M276.69,330.88,275,329.82a33.12,33.12,0,0,0,2.26-4.34l1.84.79A34.87,34.87,0,0,1,276.69,330.88Zm4.74-12.58-2-.33a37.31,37.31,0,0,0,.48-4.9l2,.07A39.55,39.55,0,0,1,281.43,318.3Zm-2-13.1c-.25-1.6-.58-3.23-1-4.85l1.93-.5a50.94,50.94,0,0,1,1.05,5Z"
            style="fill:#926CCC"></path>
        <path
            d="M269.65,339.13l-1.33-1.5c.61-.54,1.21-1.1,1.77-1.67l1.42,1.41C270.92,338,270.29,338.56,269.65,339.13Z"
            style="fill:#926CCC"></path>
        <path d="M338.81,165.39c-1.6,0-2.52-.07-2.55-.07l.12-2s.9.06,2.44.07Z"
            style="fill:#926CCC"></path>
        <path
            d="M347.65,165l-.18-2c1.81-.15,3.63-.36,5.39-.62l.28,2C351.34,164.65,349.49,164.86,347.65,165Zm14.19-2.31-.48-1.94c1.78-.45,3.53-1,5.2-1.49l.62,1.9C365.46,161.74,363.67,162.25,361.84,162.71Zm13.58-4.86-.88-1.79a51.24,51.24,0,0,0,4.69-2.61l1.06,1.69A50.54,50.54,0,0,1,375.42,157.85Zm11.94-8.19L386,148.22a38,38,0,0,0,3.59-3.94l1.57,1.24A38.71,38.71,0,0,1,387.36,149.66Z"
            style="fill:#926CCC"></path>
        <path
            d="M395.84,137.85,394,137c.34-.72.66-1.48,1-2.24l1.87.72C396.53,136.29,396.19,137.09,395.84,137.85Z"
            style="fill:#926CCC"></path>
        <path
            d="M334.22,203.46l-1.8-.87a19.34,19.34,0,0,0,.93-2.18l1.9.64A21.35,21.35,0,0,1,334.22,203.46Z"
            style="fill:#926CCC"></path>
        <path
            d="M317.29,215.51a19.85,19.85,0,0,1-5.15-.82l.56-1.92a17.63,17.63,0,0,0,4.63.74Zm8.13-2-1-1.74a16.59,16.59,0,0,0,3.68-2.88l1.43,1.4A18.72,18.72,0,0,1,325.42,213.46Zm-20.72-2.2c-.85-.53-1.72-1.11-2.59-1.73-.53-.38-1.06-.76-1.57-1.15l1.2-1.6c.5.37,1,.75,1.53,1.12.83.6,1.67,1.15,2.48,1.65Zm-10.39-7.94c-1.21-1-2.42-2.16-3.71-3.36L292,198.5c1.26,1.19,2.45,2.28,3.64,3.32Zm-9.41-8.94-.77-.77-2.75-2.74,1.41-1.42c.9.89,1.82,1.8,2.75,2.75l.77.76Zm-9.28-8.86a41.64,41.64,0,0,0-3.88-2.91l1.09-1.67A41.39,41.39,0,0,1,276.9,184Zm-10.78-6a18,18,0,0,0-4.66-.47l-.06-2a20.3,20.3,0,0,1,5.18.52Z"
            style="fill:#926CCC"></path>
        <path
            d="M250.4,181.49l-.8-1.84c.81-.34,1.61-.66,2.39-.94l.67,1.89C251.92,180.86,251.16,181.16,250.4,181.49Z"
            style="fill:#926CCC"></path>
        <path d="M352,305.66l-.6-1.91c1.54-.48,2.45-.72,2.45-.72l.49,1.94S353.41,305.2,352,305.66Z"
            style="fill:#926CCC"></path>
        <path
            d="M314.26,335.78l-1.94-.49a27.35,27.35,0,0,1,1.71-4.81l1.81.84A25.49,25.49,0,0,0,314.26,335.78Zm5.65-10.88-1.54-1.26a40.54,40.54,0,0,1,3.43-3.7l1.38,1.45A40.88,40.88,0,0,0,319.91,324.9Zm9.27-8.38L328,314.88c1.33-.93,2.74-1.84,4.21-2.71l1,1.72C331.83,314.74,330.46,315.62,329.18,316.52Zm11-6.27-.85-1.81c1.48-.69,3-1.36,4.56-2l.75,1.85C343.1,308.92,341.6,309.57,340.15,310.25Z"
            style="fill:#926CCC"></path>
        <path d="M311.86,346c-.13-.86-.22-1.73-.27-2.57l2-.12c.05.79.13,1.59.25,2.4Z"
            style="fill:#926CCC"></path>
        <path d="M310.11,141.63l-.13-2c1.51-.1,2.42-.22,2.43-.22l.26,2S311.69,141.53,310.11,141.63Z"
            style="fill:#926CCC"></path>
        <path
            d="M301.8,141.65c-1.79-.11-3.54-.3-5.19-.55l.3-2c1.6.25,3.28.42,5,.53ZM288.47,139a27.46,27.46,0,0,1-4.78-2.28l1-1.71a27.37,27.37,0,0,0,4.45,2.12Zm-11.09-8a19.21,19.21,0,0,1-2.42-4.81l1.9-.64a16.84,16.84,0,0,0,2.16,4.3Z"
            style="fill:#926CCC"></path>
        <path
            d="M275.8,117.79l-2-.06c0-.84.09-1.7.18-2.57l2,.21C275.88,116.18,275.83,117,275.8,117.79Z"
            style="fill:#926CCC"></path>
    </g>
    <g id="freepik--Backpack--inject-53">
        <path
            d="M101.62,362.74A158.25,158.25,0,0,1,114.57,395c4.56,17.25,2.05,23.35-15.24,18.42v-1.28s9.16,3,12.15,1.28.78-16.29-8-31.3S101.62,362.74,101.62,362.74Z"
            style="fill:#926CCC"></path>
        <path
            d="M101.62,362.74A158.25,158.25,0,0,1,114.57,395c4.56,17.25,2.05,23.35-15.24,18.42v-1.28s9.16,3,12.15,1.28.78-16.29-8-31.3S101.62,362.74,101.62,362.74Z"
            style="opacity:0.4"></path>
        <path
            d="M98.37,416.78c-2.75,0-7.89-.15-13.68-.31-12.38-.34-27.72-.87-28.9-1-4.56-.56-1.38-14.85,0-24.78s-.69-34,3.8-38.24c1-1,3.94-1.69,7.81-2.14,12.87-1.51,36.42-.16,37.42,3.38C106.12,358.29,107,416.87,98.37,416.78Z"
            style="fill:#926CCC"></path>
        <path
            d="M98.37,416.78c-2.75,0-7.89-.15-13.68-.31-12.38-.34-27.72-.87-28.9-1-4.56-.56-1.38-14.85,0-24.78s-.69-34,3.8-38.24c1-1,3.94-1.69,7.81-2.14,12.87-1.51,36.42-.16,37.42,3.38C106.12,358.29,107,416.87,98.37,416.78Z"
            style="opacity:0.2"></path>
        <path
            d="M88,415a11.1,11.1,0,0,1-3.27,1.5c-12.38-.34-27.72-.87-28.9-1-4.56-.56-1.38-14.85,0-24.78s-.69-34,3.8-38.24c1-1,3.94-1.69,7.81-2.14,10.35.05,25.19,1.07,26.09,2.69C94.88,355.48,90.55,412.55,88,415Z"
            style="fill:#fff;opacity:0.1;isolation:isolate"></path>
        <path
            d="M55.27,384.71s17.51-3.12,31.58,0c0,0-1.17,24.09-3.14,26.57s-30.19,1.56-31.2,0S51,389.89,55.27,384.71Z"
            style="fill:#926CCC"></path>
        <path
            d="M55.27,384.71c-1.64.17-5.45,9.33-.43,11.93s19.54,3,21.62-1,6.09-11.93,10.39-10.89c0,0,2.32-1.65-11-2.43S55.27,384.71,55.27,384.71Z"
            style="fill:#926CCC"></path>
        <path
            d="M55.27,384.71c-1.64.17-5.45,9.33-.43,11.93s19.54,3,21.62-1,6.09-11.93,10.39-10.89c0,0,2.32-1.65-11-2.43S55.27,384.71,55.27,384.71Z"
            style="fill:#fff;opacity:0.2;isolation:isolate"></path>
        <path
            d="M95.13,384.27s-.6,20.76-2.42,26.38c0,0,8.22,2.94,11.24.69S105.64,386,105.64,386,102.66,383.58,95.13,384.27Z"
            style="fill:#926CCC"></path>
        <path
            d="M95.13,384.27s-.6,20.76-2.42,26.38c0,0,8.22,2.94,11.24.69S105.64,386,105.64,386,102.66,383.58,95.13,384.27Z"
            style="fill:#fff;opacity:0.1;isolation:isolate"></path>
        <path
            d="M60,376.06c.56,1.91,7.09.69,11.84.6s11.25,2.51,13.23,1S90.38,361,79,357,56,362.31,60,376.06Z"
            style="fill:#926CCC"></path>
        <path
            d="M98.54,353c-.75-.1-1.56-.24-2.4-.42-11.46-2.51-35.37,2.38-39.27-1.49s-2.33-14.45,3.63-15.21c21.51-2.71,33.48-2.49,40.21-.8s8.26,5,8.82,8.2C110.56,349.22,108,354.28,98.54,353Z"
            style="fill:#263238"></path>
        <path
            d="M98.54,353c-7.1-6.57-1.51-15.55,2.17-17.92,6.82,1.73,8.26,5,8.82,8.2C110.56,349.22,108,354.28,98.54,353Z"
            style="fill:#fff;opacity:0.2;isolation:isolate"></path>
        <path
            d="M101.75,351.59a.5.5,0,0,0,.09-1,5,5,0,0,1-4.16-5.7c.19-2.59,1.82-5.42,4-5.51,3.47-.16,5.27,1.76,5.51,5.82a3.86,3.86,0,0,1-2.64,3.71c-1.35.4-2.59-.23-3.5-1.78s-1-3.12,0-4a2.87,2.87,0,0,1,3.5-.15c.51.37.72.76.62,1.14a1.5,1.5,0,0,1-1.18,1,.44.44,0,0,1-.49-.16.49.49,0,0,0-.68-.18.51.51,0,0,0-.19.68,1.43,1.43,0,0,0,1.5.65,2.48,2.48,0,0,0,2-1.71,2,2,0,0,0-1-2.19,3.83,3.83,0,0,0-4.76.22c-1.34,1.2-1.42,3.17-.21,5.24s2.84,2.78,4.65,2.24a4.93,4.93,0,0,0,3.35-4.73c-.34-5.8-3.75-6.86-6.55-6.76s-4.7,3.43-4.92,6.43c-.2,2.77,1,6,5,6.76Z"
            style="fill:#263238"></path>
        <path
            d="M84.21,354.85s-2.11-18.69,7.78-21a5.1,5.1,0,0,0-4.87,0c-2.49,1.43-7.79,10.8-4.88,21Z"
            style="fill:#926CCC"></path>
        <path
            d="M73.59,334.48c-2.86.26-9.17,7.68-6.65,20.31H64.4s-4.29-13.38,4.92-20.29c0,0,.67-.81,2.47-.41Z"
            style="fill:#926CCC"></path>
        <path
            d="M84.21,354.85s-2.11-18.69,7.78-21a5.1,5.1,0,0,0-4.87,0c-2.49,1.43-7.79,10.8-4.88,21Z"
            style="opacity:0.2"></path>
        <path
            d="M73.59,334.48c-2.86.26-9.17,7.68-6.65,20.31H64.4s-4.29-13.38,4.92-20.29c0,0,.67-.81,2.47-.41Z"
            style="opacity:0.2"></path>
    </g>
    <g id="freepik--Character--inject-53">
        <g id="freepik--group--inject-53">
            <path
                d="M145.91,166s22.33-6.68,26.07-7.59,18.21-13.64,21-16.87c0,0,.07-1,1.64-1.94s10.24-2.94,11.52-2-.48,7.33-2.42,7.68-7.95,2.46-9,.91c0,0-12.28,14-20.5,18.87s-30.52,14.77-30.52,14.77Z"
                style="fill:#b97964"></path>
            <path d="M148.68,180.78s5.87-.67,14.17-7.6L158.9,159.9l-17,4.57Z"
                style="fill:#926CCC"></path>
            <path
                d="M158.9,159.9l-17,4.57,5.64,13.61.65,1.56,0,.1.43,1a17.48,17.48,0,0,0,4.52-1.44,39.89,39.89,0,0,0,9.65-6.17Z"
                style="fill:#fff;opacity:0.30000000000000004;isolation:isolate"></path>
            <path
                d="M151.11,179s1.24-1.73-.11-2.25-1.47,1.77-1.47,1.77-1.28-1-2-.41l.65,1.56.15.05-.11.05.43,1a17.48,17.48,0,0,0,4.52-1.44C153,178.43,151.11,179,151.11,179Z"
                style="fill:#fff;opacity:0.4"></path>
            <path d="M149.29,179.34a.69.69,0,1,1-.08,1.1A.8.8,0,0,1,149.29,179.34Z"
                style="opacity:0.2"></path>
            <path
                d="M151.58,162.27h0l.31-.47,3.69-1c.28.41.89,1.51,0,2.19-1.16.85-1.61-1.61-1.61-1.61s-1.42,2.4-2.19,1.24A1.22,1.22,0,0,1,151.58,162.27Z"
                style="fill:#fff;opacity:0.4"></path>
            <path
                d="M158.64,172.45s1.1,1.61-.12,2.35-1.47-1.73-1.47-1.73-1.61,2.27-2.29,1.05,1.2-2.27,1.2-2.27-1.62-.26-1.15-1.26,2.15-.08,2.15-.08-.22-2.29,1.2-2,.42,2.22.42,2.22,2-.88,2.15.22S158.64,172.45,158.64,172.45Z"
                style="fill:#fff;opacity:0.4"></path>
            <path d="M156.84,171.38a.69.69,0,1,1,1.1.74.69.69,0,1,1-1.1-.74Z"
                style="opacity:0.2"></path>
            <polygon points="162.43 174.05 158.33 159.53 160.11 159.12 163.95 172.77 162.43 174.05"
                style="fill:#926CCC"></polygon>
            <polygon points="176.2 406.21 167.93 407.08 164.51 389.2 172.79 388.33 176.2 406.21"
                style="fill:#e4897b"></polygon>
            <polygon points="131.53 407.8 123.43 407.49 121.56 388.8 129.67 389.11 131.53 407.8"
                style="fill:#e4897b"></polygon>
            <path
                d="M176.94,406.36h-9.85a.71.71,0,0,0-.69.56l-1.6,7.22a1.19,1.19,0,0,0,.92,1.41l.27,0c3.18-.05,5.5-.25,9.51-.25,2.46,0,9.9.26,13.3.26s3.85-3.36,2.46-3.67c-6.25-1.36-11-3.25-13-5.05A2,2,0,0,0,176.94,406.36Z"
                style="fill:#263238"></path>
            <path
                d="M177.5,407.48a.19.19,0,0,1-.15-.16.2.2,0,0,1,.09-.19c.29-.18,2.91-1.79,3.81-1.33a.57.57,0,0,1,.33.54,1.15,1.15,0,0,1-.4,1,2.41,2.41,0,0,1-1.56.41A9.43,9.43,0,0,1,177.5,407.48Zm.55-.27a4,4,0,0,0,2.89-.14.78.78,0,0,0,.26-.69c0-.16-.07-.23-.12-.23a.45.45,0,0,0-.25,0A8,8,0,0,0,178.05,407.21Z"
                style="fill:#926CCC"></path>
            <path
                d="M177.44,407.52a.21.21,0,0,1-.09-.17c0-.11.21-2.45,1.15-3.21a1,1,0,0,1,.81-.25.63.63,0,0,1,.62.51c.17.85-1.45,2.64-2.29,3.09h-.09A.2.2,0,0,1,177.44,407.52Zm1.3-3.15a4.5,4.5,0,0,0-1,2.54c.83-.63,1.86-2,1.76-2.51,0,0,0-.2-.28-.2h-.09A.66.66,0,0,0,178.74,404.37Z"
                style="fill:#926CCC"></path>
            <path
                d="M132.71,406.1h-9.85a.71.71,0,0,0-.69.56l-1.6,7.22a1.21,1.21,0,0,0,.93,1.42l.26,0c3.19-.05,5.51-.25,9.51-.25,2.46,0,9.9.26,13.3.26s3.85-3.36,2.46-3.67c-6.25-1.36-11-3.25-13-5A2,2,0,0,0,132.71,406.1Z"
                style="fill:#263238"></path>
            <path
                d="M133.27,407.22a.19.19,0,0,1-.15-.16.19.19,0,0,1,.1-.19c.29-.18,2.91-1.79,3.8-1.33a.57.57,0,0,1,.33.54,1.1,1.1,0,0,1-.4,1,2.41,2.41,0,0,1-1.56.41A9.51,9.51,0,0,1,133.27,407.22Zm.56-.26a3.93,3.93,0,0,0,2.88-.15.78.78,0,0,0,.26-.69c0-.15-.07-.23-.12-.23a.53.53,0,0,0-.25-.05A7.7,7.7,0,0,0,133.83,407Z"
                style="fill:#926CCC"></path>
            <path
                d="M133.22,407.27a.22.22,0,0,1-.1-.18c0-.11.21-2.44,1.15-3.21a1,1,0,0,1,.81-.24.61.61,0,0,1,.62.5c.17.86-1.45,2.64-2.29,3.1h-.09A.19.19,0,0,1,133.22,407.27Zm1.3-3.16a4.52,4.52,0,0,0-1,2.54c.83-.63,1.86-2,1.76-2.51,0-.05,0-.2-.28-.2H135A.68.68,0,0,0,134.52,404.11Z"
                style="fill:#926CCC"></path>
            <polygon points="172.79 388.33 164.51 389.2 166.28 398.43 174.56 397.55 172.79 388.33"
                style="opacity:0.2;isolation:isolate"></polygon>
            <polygon points="129.67 389.12 121.56 388.81 122.53 398.45 130.64 398.76 129.67 389.12"
                style="opacity:0.2;isolation:isolate"></polygon>
            <path
                d="M176.47,394.94H161.64s-13.77-55.84-20.14-81.38c-1.44-5.77-3.25-14.35-5.15-24-1.51-7.71-3.09-16.09-4.59-24.24-3.59,30.65,1.57,126.93,1.57,126.93L119,394.05c-13.27-88.47-14.84-170.28-14.84-170.28h48c.64,5.59,7.46,65.36,11.8,92.62C167.93,341.49,176.47,394.94,176.47,394.94Z"
                style="fill:#263238"></path>
            <polygon points="117.15 395.23 135.1 395.13 134.76 390.08 116.09 389.86 117.15 395.23"
                style="fill:#926CCC"></polygon>
            <polygon points="159.87 395.06 177.37 395.06 176.83 389.88 158.64 389.54 159.87 395.06"
                style="fill:#926CCC"></polygon>
            <path
                d="M154.74,234.91h0c-11.88,4-24.76,5-35.18,4.88l-1.9,0-.64,0c-1.17,0-2.3-.07-3.38-.13-4.14-.2-7.64-.55-10.21-.86a1.15,1.15,0,0,0,0-.19,1.21,1.21,0,0,1,0-.19l0-.38c.11-1.95.21-3.88.28-5.78,0-.88.08-1.75.11-2.61s.06-1.71.08-2.55,0-1.69.07-2.52h0c0-.69,0-1.37,0-2,0-.51,0-1,0-1.53,0-1.41,0-2.8,0-4.17,0-.66,0-1.32,0-2,0-.93,0-1.83,0-2.72v-.18c0-.88,0-1.77,0-2.63,0-.18,0-.35,0-.52,0-.42,0-.83,0-1.24,0-1.24,0-2.46-.08-3.65,0-.87,0-1.73-.08-2.58s-.06-1.86-.09-2.75c0-.22,0-.43,0-.64,0-1.1-.1-2.18-.14-3.23a.49.49,0,0,1,0-.12c0-.77-.07-1.52-.11-2.25s-.09-1.44-.13-2.15c0-.47,0-.95-.08-1.41l-.09-1.38c0-.73-.09-1.44-.15-2.15,0-.34,0-.68-.07-1,0-.75-.11-1.48-.18-2.17,0-.24,0-.46,0-.69-.13-1.52-.25-2.87-.36-4.08,0-.58-.12-1.13-.16-1.64s-.11-1-.15-1.4a.19.19,0,0,1,0-.08c0-.16,0-.3-.05-.44,0-.43-.08-.81-.13-1.14,0-.07,0-.14,0-.2s0-.35-.06-.49a3,3,0,0,1,0-.39,0,0,0,0,1,0,0q0-.14,0-.24c0-.2,0-.31,0-.31a155.6,155.6,0,0,0,21.87-4.42c1.57-.12,4.36-.36,7.69-.73,1.29-.14,2.67-.31,4.09-.5.78-.1,1.58-.22,2.38-.34,1.23-.18,2.48-.38,3.71-.6,1.62-.29,3.22-.61,4.73-1l.18.94c.25,1.23.48,2.5.7,3.81.13.72.25,1.44.38,2.19.17,1,.35,2.09.51,3.15,0,.27.08.53.13.8h0l.15,1c.05.34.1.69.16,1s.13.88.19,1.32.16,1.06.23,1.59l.12.82.06.4c0,.13,0,.27,0,.4h0l.15,1.06c.05.4.11.8.16,1.2.1.69.18,1.37.28,2.07.14,1.15.3,2.32.44,3.49.27,2.1.52,4.22.77,6.34l.15,1.3.06.57c.1.8.19,1.59.27,2.39.56,5,1.07,9.93,1.52,14.6,0,.35.06.69.1,1,.18,1.84.34,3.62.51,5.36,0,.27,0,.52.07.78l.12,1.33c.05.5.09,1,.13,1.49s.09,1,.13,1.46a.71.71,0,0,1,0,.14l.06.6c0,.18,0,.37.05.55s0,.13,0,.2l.09,1c0,.06,0,.12,0,.18s0,.07,0,.11v.08c0,.45.08.89.11,1.32l0,.34c0,.12,0,.23,0,.35a.22.22,0,0,1,0,.11c0,.38.07.77.1,1.15C154.57,232.68,154.66,233.85,154.74,234.91Z"
                style="fill:#926CCC"></path>
            <path
                d="M154.74,234.91h0c-11.88,4-24.76,5-35.18,4.88l-1.9,0-.64,0c-1.17,0-2.3-.07-3.38-.13-4.14-.2-7.64-.55-10.21-.86,0,.37,0,.75-.07,1.11q0-.56.06-1.11a1.11,1.11,0,0,0,0-.19,1.21,1.21,0,0,1,0-.19l0-.38c.11-1.95.21-3.88.28-5.78,0-.88.08-1.75.11-2.61s.06-1.71.08-2.55,0-1.69.07-2.52V224c0-.52,0-1,0-1.55s0-1,0-1.53c0-1.41,0-2.8,0-4.17,0-.66,0-1.32,0-2,0-.93,0-1.83,0-2.72v-.18c0-.88,0-1.77,0-2.63,0-.18,0-.35,0-.52,0-.42,0-.83,0-1.24,0-1.24,0-2.46-.08-3.65,0-.87,0-1.73-.08-2.58s-.06-1.86-.09-2.75c0-.22,0-.43,0-.64,0-1.1-.1-2.18-.14-3.23a.49.49,0,0,1,0-.12c0-.77-.07-1.52-.11-2.25s-.09-1.44-.13-2.15c0-.47,0-.95-.08-1.41l-.09-1.38c0-.73-.09-1.44-.15-2.15,0-.34,0-.68-.07-1,0-.75-.11-1.48-.18-2.17,0-.24,0-.46,0-.69-.13-1.52-.25-2.87-.36-4.08,0-.58-.12-1.13-.16-1.64s-.11-1-.15-1.4a.19.19,0,0,1,0-.08c0-.16,0-.3-.05-.44,0-.43-.09-.81-.13-1.14,0-.07,0-.14,0-.2s0-.35-.06-.49a3,3,0,0,1,0-.39,0,0,0,0,1,0,0q0-.14,0-.24c0-.2,0-.31,0-.31h0a155.6,155.6,0,0,0,21.87-4.42c1.57-.12,4.36-.36,7.69-.73,1.29-.14,2.67-.31,4.09-.5.78-.1,1.58-.22,2.38-.34,1.23-.18,2.48-.38,3.71-.6,1.62-.29,3.22-.61,4.73-1l.18.94c.25,1.23.48,2.5.7,3.81.13.72.25,1.44.38,2.19.17,1,.35,2.09.51,3.15,0,.27.08.53.13.8h0l.15,1c.05.34.1.69.16,1s.13.88.19,1.32.16,1.06.23,1.59l.12.82.06.4.06.4c0,.35.09.71.14,1.07s.11.8.16,1.2c.1.69.18,1.37.28,2.07.14,1.15.3,2.32.44,3.49.27,2.1.52,4.22.77,6.34l.15,1.3c0,.18,0,.37.07.55h0c.09.8.18,1.6.26,2.4.56,5,1.07,9.93,1.52,14.6,0,.35.06.69.1,1,.18,1.84.34,3.62.51,5.36,0,.27,0,.52.07.78l.12,1.33c.05.5.09,1,.13,1.49s.09,1,.13,1.46a.71.71,0,0,1,0,.14l.06.6c0,.18,0,.37.05.55s0,.31,0,.46,0,.3,0,.45,0,.31,0,.47,0,.07,0,.11c0,.47.08.94.12,1.39,0,.12,0,.24,0,.35s0,.23,0,.35a.22.22,0,0,1,0,.11c0,.38.07.77.1,1.15C154.57,232.68,154.66,233.85,154.74,234.91Z"
                style="fill:#fff;opacity:0.4;isolation:isolate"></path>
            <path
                d="M151.09,196.88c-.79.76-2.75.53-2.75.53s2.2,3.36-.13,3.71-2.44-3.13-2.44-3.13-2.2,2.56-3.31,1,1.84-3.48,1.84-3.48-2.93-1.77-1.77-3.65,3.56,1.75,3.56,1.75.47-4.42,2.45-3,.25,4,.14,4.17a3.26,3.26,0,0,1,2.19.25c.07.62.14,1.23.22,1.85Z"
                style="fill:#fff;opacity:0.4"></path>
            <path
                d="M147.79,196c-.06.77-.6,1.3-1.2,1.17a1.49,1.49,0,0,1-1-1.62c.06-.78.59-1.3,1.2-1.18A1.5,1.5,0,0,1,147.79,196Z"
                style="opacity:0.2"></path>
            <path
                d="M139.53,215.32s-2.93-1.77-1.77-3.65,3.56,1.76,3.56,1.76.47-4.43,2.45-3,.13,4.17.13,4.17,2.56-.58,2.72,1.22-3.06,1.42-3.06,1.42,2.21,3.36-.12,3.71-2.44-3.12-2.44-3.12-2.2,2.55-3.31,1S139.53,215.32,139.53,215.32Z"
                style="fill:#fff;opacity:0.4"></path>
            <path
                d="M143,215.86c-.06.77-.6,1.3-1.21,1.17a1.49,1.49,0,0,1-1-1.62c.05-.78.59-1.3,1.2-1.18A1.52,1.52,0,0,1,143,215.86Z"
                style="opacity:0.2"></path>
            <path
                d="M154.3,229.5c-.75.58-1.81,1.14-2.48.18-1.11-1.58,1.84-3.48,1.84-3.48s-2.93-1.77-1.77-3.65c.47-.76,1.14-.61,1.78-.17C153.9,224.92,154.11,227.3,154.3,229.5Z"
                style="fill:#fff;opacity:0.4"></path>
            <path
                d="M119.56,239.8l-1.9,0-.64,0c-1.17,0-2.3-.07-3.38-.13a2,2,0,0,1-.39-2.46c1.15-1.88,3.55,1.75,3.55,1.75s.47-4.43,2.46-3C120.84,237.08,120,239.06,119.56,239.8Z"
                style="fill:#fff;opacity:0.4"></path>
            <path d="M117.66,239.77l-.64,0a.87.87,0,0,1,.48,0Z" style="opacity:0.2"></path>
            <path
                d="M112.2,206.13s2.82,2,1.51,3.72-3.46-2-3.46-2-.8,4.34-2.69,2.77.18-4.13.18-4.13-2.62.4-2.65-1.39,3.19-1.19,3.19-1.19-2-3.47.4-3.65,2.23,3.26,2.23,3.26,2.4-2.36,3.4-.72S112.2,206.13,112.2,206.13Z"
                style="fill:#fff;opacity:0.4"></path>
            <path
                d="M108.73,205.35c.11-.76.69-1.24,1.29-1.08a1.49,1.49,0,0,1,.89,1.68c-.12.76-.7,1.24-1.3,1.08A1.48,1.48,0,0,1,108.73,205.35Z"
                style="opacity:0.2"></path>
            <path
                d="M107,229.45s1.12,3.12-1.17,3.48-1.65-3.54-1.65-3.54l-.34.22c.06-1.71.11-3.41.14-5.08a7.16,7.16,0,0,1,1.13.94s.6-3.6,2.76-2.21-.26,3.62-.26,3.62,3.63-.07,3.39,1.68S107,229.45,107,229.45Z"
                style="fill:#fff;opacity:0.4"></path>
            <path
                d="M104.58,226.71a1.35,1.35,0,0,1,1.82.1,1.19,1.19,0,0,1-.35,1.7,1.37,1.37,0,0,1-1.83-.1A1.2,1.2,0,0,1,104.58,226.71Z"
                style="opacity:0.2"></path>
            <path
                d="M142.29,165.55c-.23,1.76-4,.9-4,.9s1.12,3.11-1.17,3.47-1.65-3.53-1.65-3.53-3.56,2.41-4.14.15a1.92,1.92,0,0,1,0-.78c1.29-.14,2.67-.31,4.09-.5.78-.1,1.58-.22,2.38-.34,1.23-.18,2.48-.38,3.71-.6A1.15,1.15,0,0,1,142.29,165.55Z"
                style="fill:#fff;opacity:0.4"></path>
            <path
                d="M137.77,164.92a1.32,1.32,0,0,1-.46.58,1.34,1.34,0,0,1-1.82-.1.71.71,0,0,1-.1-.14C136.17,165.16,137,165,137.77,164.92Z"
                style="opacity:0.2"></path>
            <path
                d="M114.23,183.68s1.11,3.12-1.18,3.48-1.65-3.54-1.65-3.54-3.55,2.42-4.13.16,2.89-2.68,2.89-2.68-2.51-1.4-1.35-2.63,3.51,1.23,3.51,1.23.62-3.6,2.77-2.21-.26,3.61-.26,3.61,3.63-.06,3.39,1.69S114.23,183.68,114.23,183.68Z"
                style="fill:#fff;opacity:0.4"></path>
            <path
                d="M111.77,180.94a1.34,1.34,0,0,1,1.82.1,1.19,1.19,0,0,1-.35,1.7,1.37,1.37,0,0,1-1.83-.1A1.2,1.2,0,0,1,111.77,180.94Z"
                style="opacity:0.2"></path>
            <path
                d="M127,193s.87,2.43-.92,2.71S124.8,193,124.8,193s-2.78,1.89-3.23.12,2.25-2.08,2.25-2.08-1.95-1.1-1-2.06,2.74,1,2.74,1,.48-2.81,2.16-1.73-.2,2.83-.2,2.83,2.83-.05,2.64,1.31S127,193,127,193Z"
                style="fill:#fff;opacity:0.4"></path>
            <path
                d="M125.08,190.87a1,1,0,0,1,1.42.08.92.92,0,0,1-.27,1.32,1.06,1.06,0,0,1-1.43-.08A.93.93,0,0,1,125.08,190.87Z"
                style="opacity:0.2"></path>
            <path
                d="M149.07,180.85a1.2,1.2,0,0,1-.83.45c-1.79.29-1.28-2.76-1.28-2.76s-2.78,1.89-3.23.13,2.25-2.09,2.25-2.09-1.95-1.1-1-2.05,2.74.95,2.74.95a4.26,4.26,0,0,1,.42-1.22c.11.68.21,1.37.32,2.06.06.43.13.88.19,1.32C148.77,178.69,148.92,179.77,149.07,180.85Z"
                style="fill:#fff;opacity:0.4"></path>
            <path
                d="M148.61,177.64a1.14,1.14,0,0,1-.22.22,1.07,1.07,0,0,1-1.42-.08.93.93,0,0,1,.27-1.33,1.16,1.16,0,0,1,1.18-.13C148.48,176.75,148.55,177.2,148.61,177.64Z"
                style="opacity:0.2"></path>
            <path
                d="M125.93,222s.77,2.16-.82,2.41S124,222,124,222s-2.46,1.67-2.86.11,2-1.85,2-1.85-1.73-1-.93-1.82,2.43.85,2.43.85.42-2.49,1.91-1.53-.18,2.5-.18,2.5,2.51,0,2.35,1.17S125.93,222,125.93,222Z"
                style="fill:#fff;opacity:0.4"></path>
            <path
                d="M124.22,220.13a.94.94,0,0,1,1.27.06.83.83,0,0,1-.25,1.18.94.94,0,0,1-1.26-.07A.82.82,0,0,1,124.22,220.13Z"
                style="opacity:0.2"></path>
            <path
                d="M136.47,201a.94.94,0,0,1-1.18.84,1.28,1.28,0,0,1-1-1.29.93.93,0,0,1,1.18-.83A1.28,1.28,0,0,1,136.47,201Z"
                style="fill:#926CCC"></path>
            <path
                d="M138.79,225.47a1,1,0,0,1-1.19.84,1.27,1.27,0,0,1-1-1.29.93.93,0,0,1,1.18-.83A1.28,1.28,0,0,1,138.79,225.47Z"
                style="fill:#926CCC"></path>
            <path d="M103.43,238.76c0,.37,0,.74-.07,1.11q0-.56.06-1.11Z"
                style="fill:#926CCC"></path>
            <path
                d="M133.05,165c-1.23,3.19-4.77,7.85-4.77,7.85l-15.44-4.18c6.51-4.38-1.37-16-1.37-16l13.61.95a27.5,27.5,0,0,0,2.35,7.66C130,166.27,133.05,165,133.05,165Z"
                style="fill:#b97964"></path>
            <path
                d="M127.43,161.26a14.31,14.31,0,0,1-13.68-5.59l9.93-2.16,1.4.09A27.5,27.5,0,0,0,127.43,161.26Z"
                style="opacity:0.2;isolation:isolate"></path>
            <path d="M99.75,154.79c-3.17-2.94,17.54-35.06,29-31.07S107.34,161.82,99.75,154.79Z"
                style="fill:#926CCC"></path>
            <path
                d="M117.87,134.3c-2.1,3.12.55,5.91,9.17,8.47,1.27-4.51-2.07-14.36-4.85-15.19S119.7,131.59,117.87,134.3Z"
                style="fill:#263238"></path>
            <path
                d="M130.64,144.26a0,0,0,0,1,0,0,25.62,25.62,0,0,1,.58,2.87c1,7.71-6.45,14.29-13.9,11l-.08,0c-5-2.27-6.47-6.48-9.63-13.41a10.39,10.39,0,0,1,9.65-14.78C124.23,130,128.92,137.7,130.64,144.26Z"
                style="fill:#b97964"></path>
            <path
                d="M119,142.56c.22.58.71.93,1.09.78s.5-.72.27-1.3-.7-.93-1.07-.79S118.78,142,119,142.56Z"
                style="fill:#263238"></path>
            <path
                d="M125.53,140.06c.22.57.71.92,1.08.78s.51-.73.29-1.31-.71-.93-1.09-.78S125.31,139.48,125.53,140.06Z"
                style="fill:#263238"></path>
            <path d="M123.49,141.15a21.91,21.91,0,0,0,4.65,3.88,3.57,3.57,0,0,1-2.56,1.57Z"
                style="fill:#a24e3f"></path>
            <path
                d="M116.37,141.18a.33.33,0,0,1-.48-.41,3.56,3.56,0,0,1,2.22-2.46.36.36,0,0,1,.45.21v0a.37.37,0,0,1-.25.45h0a2.88,2.88,0,0,0-1.73,2A.4.4,0,0,1,116.37,141.18Z"
                style="fill:#263238"></path>
            <path
                d="M127.67,136.7a.38.38,0,0,1-.39-.08,2.87,2.87,0,0,0-2.49-.8.36.36,0,0,1-.44-.27.37.37,0,0,1,.26-.44,3.65,3.65,0,0,1,3.17,1,.36.36,0,0,1,0,.5h0A.38.38,0,0,1,127.67,136.7Z"
                style="fill:#263238"></path>
            <path
                d="M116.37,125.82C107.05,125,97.94,133,101,143.08c1.74,5.71,7.73,11.45,10.45,10.5,1.62-5.86.59-13.48-.69-15.15a5.45,5.45,0,0,1,.24-4.13s7.5-1.22,8.94-2.05a16.74,16.74,0,0,0,2.5-1.77l2.45,2.16S125.74,126.64,116.37,125.82Z"
                style="fill:#263238"></path>
            <path
                d="M106.42,151.64a7.18,7.18,0,0,0,4.76,2.81c2.51.34,3.41-2,2.42-4.18-.9-2-3.29-4.52-5.66-3.84S105,149.76,106.42,151.64Z"
                style="fill:#b97964"></path>
            <path
                d="M126.46,148.81a20,20,0,0,0-.43,2.93l-.52,0c-2.36.18-3.51-.51-4.07-1.33a2.94,2.94,0,0,1-.48-1.36,2.68,2.68,0,0,1,0-.83,11.11,11.11,0,0,0,4.69.6C126.15,148.84,126.46,148.81,126.46,148.81Z"
                style="fill:#263238"></path>
            <path
                d="M125.65,148.86l-.14.86c-2.22.17-3.81,0-4.55-.63a2.68,2.68,0,0,1,0-.83A11.11,11.11,0,0,0,125.65,148.86Z"
                style="fill:#fff"></path>
            <path
                d="M125.51,151.78c-2.36.18-3.51-.51-4.07-1.33a7.5,7.5,0,0,1,2.65.31A3,3,0,0,1,125.51,151.78Z"
                style="fill:#de5753"></path>
            <path
                d="M118.88,124.9l-17.59,18.81L99.23,140l-2.66-4.8C99.1,122,112,119.91,112,119.91l5.65,4.13Z"
                style="fill:#926CCC"></path>
            <path
                d="M101.22,155.58c-1.78-1.59,9.13-29.22,28.45-31.38,0,0-2.39-3.5-17.3,3.34a31.51,31.51,0,0,0-11.76,13.1s-2.55,10.4-.86,14.15Z"
                style="fill:#926CCC"></path>
            <path
                d="M118.88,124.9a69.81,69.81,0,0,0-6.5,2.64,31.51,31.51,0,0,0-11.77,13.09s-.12.5-.3,1.33L99.23,140c2.3-4.63,8-13.63,18.46-16Z"
                style="fill:#fff;opacity:0.6000000000000001;isolation:isolate"></path>
            <path
                d="M101.22,155.58c-1.78-1.59,9.13-29.22,28.45-31.38,0,0-2.39-3.5-17.3,3.34a31.51,31.51,0,0,0-11.76,13.1s-2.55,10.4-.86,14.15Z"
                style="fill:#fff;opacity:0.2;isolation:isolate"></path>
            <path
                d="M113.51,165.65a43.58,43.58,0,0,0,14,5.82s1.52-6.18.57-9.55l5.38,3s2.29,1.31.75,9.1l-5.95-1.18-2.43,7.1s-13.63-4.28-16-10.74Z"
                style="fill:#926CCC"></path>
            <path
                d="M113.51,165.65a43.58,43.58,0,0,0,14,5.82s1.52-6.18.57-9.55l5.38,3s2.29,1.31.75,9.1l-5.95-1.18-2.43,7.1s-13.63-4.28-16-10.74Z"
                style="fill:#fff;opacity:0.2;isolation:isolate"></path>
            <path d="M131.75,173.57a1.07,1.07,0,1,1-1-1.15A1.07,1.07,0,0,1,131.75,173.57Z"
                style="fill:#926CCC"></path>
            <path
                d="M104,223.73c.19-8.33.11-16-.1-22.73,1-2.86,1.72-4.72,1.72-4.72S110.23,211.83,104,223.73Z"
                style="opacity:0.2;isolation:isolate"></path>
            <path
                d="M98.85,212.8c1.41.13,6.38-3.49,9-3.3s4.17-.28,4.65.89-2.14,9.1-2.91,9.23a20.19,20.19,0,0,1-3.74-.45s-4.8,2.19-8.85-1.15S98.85,212.8,98.85,212.8Z"
                style="fill:#b97964"></path>
            <path
                d="M94.17,183.25s-15.55,19.67-15.92,26.2S98,219.27,98,219.27l1.7-4.24s-12.47-6-12.91-7.2,12.8-15.29,12.8-15.29Z"
                style="fill:#b97964"></path>
            <path
                d="M101.74,171.19s-8.38,5-16.67,21.8l11.79,11.29,6.55-5.47S107.56,174.42,101.74,171.19Z"
                style="fill:#926CCC"></path>
            <path
                d="M103.52,198.15h0l-.11.65L100,201.7l-3.09,2.58L85.07,193a81,81,0,0,1,7.47-12.41,52,52,0,0,1,4.94-5.79,24.66,24.66,0,0,1,4.26-3.6C107,174.1,104.13,194.24,103.52,198.15Z"
                style="fill:#fff;opacity:0.30000000000000004;isolation:isolate"></path>
            <path
                d="M96.85,179.27s1.56,2.23-.09,2.72S95,180,95,180s-1.55,2.08-2.34,1a.91.91,0,0,1-.16-.4,52,52,0,0,1,4.94-5.79c.51,1-.32,2.4-.39,2.52.12,0,1.81-.62,1.92.63S96.85,179.27,96.85,179.27Z"
                style="fill:#fff;opacity:0.4"></path>
            <path
                d="M96.47,178.31c0,.57-.42,1-.85,1a.94.94,0,0,1-.71-1.09c0-.57.42-1,.85-1A.93.93,0,0,1,96.47,178.31Z"
                style="opacity:0.2"></path>
            <path
                d="M103.52,198.15h0l-.11.65L100,201.7c-.5-.3-1.7-1.18-1-2.37.82-1.48,2.52.92,2.52.92s.32-3.26,1.72-2.41A1.45,1.45,0,0,1,103.52,198.15Z"
                style="fill:#fff;opacity:0.4"></path>
            <path
                d="M89.81,191.28s-2.07-1-1.25-2.48,2.51.92,2.51.92.33-3.27,1.73-2.42.1,3,.1,3,1.81-.68,1.92.61-2.16,1.34-2.16,1.34,1.56,2.23-.09,2.72-1.72-2-1.72-2-1.56,2.08-2.34,1S89.81,191.28,89.81,191.28Z"
                style="fill:#fff;opacity:0.4"></path>
            <path
                d="M92.27,191.32c0,.57-.42,1-.85,1a.93.93,0,0,1-.7-1.09c0-.57.42-1,.85-1A.92.92,0,0,1,92.27,191.32Z"
                style="opacity:0.2"></path>
            <polygon points="85 191.85 97.66 204.33 96.08 205.79 84.18 194.04 85 191.85"
                style="fill:#926CCC"></polygon>
            <path d="M133.45,183a3.23,3.23,0,1,1-3.67-2.71A3.23,3.23,0,0,1,133.45,183Z"
                style="fill:#263238"></path>
            <path d="M132.29,175.33a3.23,3.23,0,1,1-3.67-2.71A3.22,3.22,0,0,1,132.29,175.33Z"
                style="fill:#263238"></path>
            <path
                d="M130.59,188.46a.5.5,0,0,1-.49-.42L129,181a2.66,2.66,0,0,1-.36-2.37l-1.06-7a.5.5,0,0,1,1-.15l1.08,7.18a.48.48,0,0,1-.06.33s-.32.62.31,1.59a.48.48,0,0,1,.07.2l1.08,7.11a.51.51,0,0,1-.42.57Z"
                style="fill:#263238"></path>
            <polygon points="199.09 135.26 204.32 127.09 210.99 135.26 199.09 135.26"
                style="fill:#926CCC"></polygon>
            <polygon points="199.09 135.26 204.32 127.09 210.99 135.26 199.09 135.26"
                style="fill:#fff;opacity:0.7000000000000001"></polygon>
            <polygon points="204.24 128.25 203.7 136.41 205.03 136.41 204.24 128.25"
                style="opacity:0.2;isolation:isolate"></polygon>
            <path d="M191.42,134.31l4.73,6.1h17.59l4.79-8A161.54,161.54,0,0,1,191.42,134.31Z"
                style="fill:#926CCC"></path>
            <path d="M191.42,134.31l4.73,6.1h17.59l4.79-8A161.54,161.54,0,0,1,191.42,134.31Z"
                style="fill:#fff;opacity:0.8"></path>
        </g>
    </g>
</svg>